<?xml version="1.0" encoding="UTF-8" standalone="no"?>
<!-- Created with Inkscape (http://www.inkscape.org/) -->

<svg
   width="40mm"
   height="40mm"
   viewBox="0 0 40 40.000001"
   version="1.1"
   id="svg16296"
   inkscape:version="1.2.2 (b0a8486541, 2022-12-01)"
   sodipodi:docname="bugicons.svg"
   inkscape:export-filename="bacgrounds/moth.png"
   inkscape:export-xdpi="96"
   inkscape:export-ydpi="96"
   xmlns:inkscape="http://www.inkscape.org/namespaces/inkscape"
   xmlns:sodipodi="http://sodipodi.sourceforge.net/DTD/sodipodi-0.dtd"
   xmlns="http://www.w3.org/2000/svg"
   xmlns:svg="http://www.w3.org/2000/svg">
  <sodipodi:namedview
     id="namedview16298"
     pagecolor="#ffffff"
     bordercolor="#000000"
     borderopacity="0.25"
     inkscape:showpageshadow="2"
     inkscape:pageopacity="0.0"
     inkscape:pagecheckerboard="0"
     inkscape:deskcolor="#d1d1d1"
     inkscape:document-units="mm"
     showgrid="false"
     inkscape:zoom="2.9313558"
     inkscape:cx="102.17115"
     inkscape:cy="101.3183"
     inkscape:window-width="1503"
     inkscape:window-height="937"
     inkscape:window-x="0"
     inkscape:window-y="0"
     inkscape:window-maximized="1"
     inkscape:current-layer="layer1" />
  <defs
     id="defs16293">
    <inkscape:path-effect
       effect="mirror_symmetry"
       start_point="22.59341,51.805354"
       end_point="22.59341,54.413588"
       center_point="22.59341,53.109471"
       id="path-effect12620"
       is_visible="true"
       lpeversion="1.2"
       lpesatellites=""
       mode="free"
       discard_orig_path="false"
       fuse_paths="false"
       oposite_fuse="false"
       split_items="false"
       split_open="false"
       link_styles="false" />
    <inkscape:path-effect
       effect="mirror_symmetry"
       start_point="18.54474,69.286373"
       end_point="18.54474,70.275087"
       center_point="18.54474,69.78073"
       id="path-effect7381"
       is_visible="true"
       lpeversion="1.2"
       lpesatellites=""
       mode="free"
       discard_orig_path="false"
       fuse_paths="false"
       oposite_fuse="false"
       split_items="false"
       split_open="false"
       link_styles="false" />
    <inkscape:path-effect
       effect="mirror_symmetry"
       start_point="54.676348,31.902514"
       end_point="54.676348,36.476173"
       center_point="54.676348,34.189343"
       id="path-effect1457"
       is_visible="true"
       lpeversion="1.2"
       lpesatellites=""
       mode="free"
       discard_orig_path="false"
       fuse_paths="false"
       oposite_fuse="false"
       split_items="false"
       split_open="false"
       link_styles="false" />
    <inkscape:path-effect
       effect="mirror_symmetry"
       start_point="52.403594,112.64608"
       end_point="52.403594,123.43288"
       center_point="52.403594,118.03948"
       id="path-effect55508"
       is_visible="true"
       lpeversion="1.2"
       lpesatellites=""
       mode="free"
       discard_orig_path="false"
       fuse_paths="false"
       oposite_fuse="false"
       split_items="false"
       split_open="false"
       link_styles="false" />
    <inkscape:path-effect
       effect="mirror_symmetry"
       start_point="75.651969,70.235097"
       end_point="75.651969,93.056632"
       center_point="75.651969,81.645865"
       id="path-effect238"
       is_visible="true"
       lpeversion="1.2"
       lpesatellites=""
       mode="X"
       discard_orig_path="false"
       fuse_paths="false"
       oposite_fuse="false"
       split_items="false"
       split_open="false"
       link_styles="false" />
    <inkscape:path-effect
       effect="mirror_symmetry"
       start_point="105.117,129.28424"
       end_point="105.117,136.52402"
       center_point="105.117,132.90413"
       id="path-effect55512"
       is_visible="true"
       lpeversion="1.2"
       lpesatellites=""
       mode="free"
       discard_orig_path="false"
       fuse_paths="false"
       oposite_fuse="false"
       split_items="false"
       split_open="false"
       link_styles="false" />
    <inkscape:path-effect
       effect="mirror_symmetry"
       start_point="102.29617,72.200504"
       end_point="102.29617,80.236947"
       center_point="102.29617,76.218726"
       id="path-effect30820"
       is_visible="true"
       lpeversion="1.2"
       lpesatellites=""
       mode="free"
       discard_orig_path="false"
       fuse_paths="false"
       oposite_fuse="false"
       split_items="false"
       split_open="false"
       link_styles="false" />
    <inkscape:path-effect
       effect="mirror_symmetry"
       start_point="60.327273,202.52541"
       end_point="60.327273,231.33907"
       center_point="60.327273,216.93224"
       id="path-effect55529"
       is_visible="true"
       lpeversion="1.2"
       lpesatellites=""
       mode="free"
       discard_orig_path="false"
       fuse_paths="false"
       oposite_fuse="false"
       split_items="false"
       split_open="false"
       link_styles="false" />
    <inkscape:path-effect
       effect="mirror_symmetry"
       start_point="184.14323,70.313189"
       end_point="184.14323,73.585934"
       center_point="184.14323,71.949561"
       id="path-effect9704"
       is_visible="true"
       lpeversion="1.2"
       lpesatellites=""
       mode="free"
       discard_orig_path="false"
       fuse_paths="false"
       oposite_fuse="false"
       split_items="false"
       split_open="false"
       link_styles="false" />
  </defs>
  <g
     inkscape:label="Layer 1"
     inkscape:groupmode="layer"
     id="layer1"
     transform="translate(-85.765225,-135.20021)">
    <rect
       style="display:inline;fill:#ffffff;fill-opacity:1;stroke:#000000;stroke-width:0.499999;stroke-linecap:round;stroke-linejoin:round"
       id="rect17661"
       width="39.555576"
       height="39.555576"
       x="85.951828"
       y="135.39284" />
    <path
       style="display:none;fill:none;stroke:#000000;stroke-width:0.5;stroke-linecap:round;stroke-linejoin:round;stroke-dasharray:none;stroke-opacity:1"
       d="m 75.58717,70.640027 c -0.803574,-0.125456 -0.682016,-0.282167 -1.396733,0.144471 0.06712,0.509904 0.145037,0.99754 0.259978,1.408688 0.01744,0.06237 1.203254,0.397193 1.222487,0.455856 0.0079,0.02415 -1.151532,-0.226241 -1.143289,-0.202767 l -0.507817,-0.06275 -1.686021,-1.257323 0.725161,-0.891105 -0.317885,1.183243 1.264192,0.962108 c -1.538219,0.226638 -2.858422,2.517483 -2.858422,2.517483 -0.239262,0.21626 -0.868278,2.625229 -1.372353,3.265647 -0.02254,0.03934 -1.953155,-2.411782 -1.975377,-2.371661 -0.01182,0.02133 2.467504,-3.101768 2.124462,-3.682578 -8.7e-4,-0.0015 -1.243592,-0.904577 -1.531727,-0.842584 -0.272827,0.0587 1.54432,0.72673 1.503202,0.8684 -0.332244,1.14474 -2.141389,3.643068 -2.147806,3.655005 -0.03308,0.06154 2.019797,2.380945 1.987528,2.444193 -0.30505,0.597905 -0.433032,1.087735 -0.491136,1.62087 -0.01624,0.149046 -2.799643,3.444482 -2.807306,3.603604 -0.0011,0.02285 0.320952,3.781429 0.699586,4.001678 0.06834,0.03975 -2.365861,3.073814 -2.216848,2.986764 0.157278,-0.09191 2.069789,-2.72298 2.062897,-3.00348 -0.0065,-0.266071 -0.770257,-3.943898 -0.589502,-4.078017 1.288948,-0.956394 2.849861,-3.552453 2.846932,-3.407886 -0.0071,0.349634 -0.06003,1.66244 -0.08099,2.117018 0.0542,0.470185 0.365356,2.575584 0.423031,2.991568 0.04249,0.30646 -0.368396,3.474873 -0.36985,3.538129 -0.0013,0.05581 -1.235868,3.001137 -1.184874,3.065077 0.01866,0.0234 -2.246633,0.37621 -2.162343,0.464671 0.05901,0.06193 2.135093,-0.370902 2.193559,-0.45867 0.262466,-1.060042 0.433608,-2.246608 1.125732,-3.056516 0.07661,-0.103491 0.395483,-3.608463 0.426199,-3.441889 0.51126,2.772571 1.158994,4.296038 2.040115,6.470101 0.739192,0.766724 1.802688,1.144445 2.966645,1.401664 0.416426,0.03593 0.558156,-0.06422 0.786979,-0.121222 l 0.258763,-13.091815 -1.372003,-1.622844 c -1.396085,-0.01354 -0.799606,0.08817 -1.851981,-0.540856 -0.593279,-0.426028 -1.552879,-1.7726 -1.549455,-1.873535 -0.121029,0.272156 0.503203,1.157769 1.140908,1.630725 0.930838,0.605677 1.145014,0.948821 2.298543,0.706218 l 1.350044,-0.283242 m 0.03637,-7.212441 c 0.803574,-0.125456 0.682016,-0.282167 1.396733,0.144471 -0.06712,0.509904 -0.145037,0.99754 -0.259978,1.408688 -0.01744,0.06237 -1.203254,0.397193 -1.222487,0.455856 -0.0079,0.02415 1.151532,-0.226241 1.143289,-0.202767 l 0.507817,-0.06275 1.686021,-1.257323 -0.725161,-0.891105 0.317885,1.183243 -1.264192,0.962108 c 1.538219,0.226638 2.858422,2.517483 2.858422,2.517483 0.239262,0.21626 0.868278,2.625229 1.372353,3.265647 0.02254,0.03934 1.953155,-2.411782 1.975377,-2.371661 0.01182,0.02133 -2.467504,-3.101768 -2.124462,-3.682578 8.7e-4,-0.0015 1.243592,-0.904577 1.531727,-0.842584 0.272827,0.0587 -1.54432,0.72673 -1.503202,0.8684 0.332244,1.14474 2.141389,3.643068 2.147806,3.655005 0.03308,0.06154 -2.019797,2.380945 -1.987528,2.444193 0.30505,0.597905 0.433032,1.087735 0.491136,1.62087 0.01624,0.149046 2.799643,3.444482 2.807306,3.603604 0.0011,0.02285 -0.320952,3.781429 -0.699586,4.001678 -0.06834,0.03975 2.365861,3.073814 2.216848,2.986764 -0.157278,-0.09191 -2.069789,-2.72298 -2.062897,-3.00348 0.0065,-0.266071 0.770257,-3.943898 0.589502,-4.078017 -1.288948,-0.956394 -2.849861,-3.552453 -2.846932,-3.407886 0.0071,0.349634 0.06003,1.66244 0.08099,2.117018 -0.0542,0.470185 -0.365356,2.575584 -0.423031,2.991568 -0.04249,0.30646 0.368396,3.474873 0.36985,3.538129 0.0013,0.05581 1.235868,3.001137 1.184874,3.065077 -0.01866,0.0234 2.246633,0.37621 2.162343,0.464671 -0.05901,0.06193 -2.135093,-0.370902 -2.193559,-0.45867 -0.262466,-1.060042 -0.433608,-2.246608 -1.125732,-3.056516 -0.07661,-0.103491 -0.395483,-3.608463 -0.426199,-3.441889 -0.51126,2.772571 -1.158994,4.296038 -2.040115,6.470101 -0.739192,0.766724 -1.802688,1.144445 -2.966645,1.401664 -0.416426,0.03593 -0.558156,-0.06422 -0.786979,-0.121222 l -0.258763,-13.091815 1.372003,-1.622844 c 1.396085,-0.01354 0.799606,0.08817 1.851981,-0.540856 0.593279,-0.426028 1.552879,-1.7726 1.549455,-1.873535 0.121029,0.272156 -0.503203,1.157769 -1.140908,1.630725 -0.930838,0.605677 -1.145014,0.948821 -2.298543,0.706218 L 75.62354,77.852468"
       id="path236"
       inkscape:path-effect="#path-effect238"
       inkscape:original-d="m 75.58717,70.640027 c -0.803574,-0.125456 -0.682016,-0.282167 -1.396733,0.144471 0.06712,0.509904 0.145037,0.99754 0.259978,1.408688 0.01744,0.06237 1.203254,0.397193 1.222487,0.455856 0.0079,0.02415 -1.151532,-0.226241 -1.143289,-0.202767 l -0.507817,-0.06275 -1.686021,-1.257323 0.725161,-0.891105 -0.317885,1.183243 1.264192,0.962108 c -1.538219,0.226638 -2.858422,2.517483 -2.858422,2.517483 -0.239262,0.21626 -0.868278,2.625229 -1.372353,3.265647 -0.02254,0.03934 -1.953155,-2.411782 -1.975377,-2.371661 -0.01182,0.02133 2.467504,-3.101768 2.124462,-3.682578 -8.7e-4,-0.0015 -1.243592,-0.904577 -1.531727,-0.842584 -0.272827,0.0587 1.54432,0.72673 1.503202,0.8684 -0.332244,1.14474 -2.141389,3.643068 -2.147806,3.655005 -0.03308,0.06154 2.019797,2.380945 1.987528,2.444193 -0.30505,0.597905 -0.433032,1.087735 -0.491136,1.62087 -0.01624,0.149046 -2.799643,3.444482 -2.807306,3.603604 -0.0011,0.02285 0.320952,3.781429 0.699586,4.001678 0.06834,0.03975 -2.365861,3.073814 -2.216848,2.986764 0.157278,-0.09191 2.069789,-2.72298 2.062897,-3.00348 -0.0065,-0.266071 -0.770257,-3.943898 -0.589502,-4.078017 1.288948,-0.956394 2.849861,-3.552453 2.846932,-3.407886 -0.0071,0.349634 -0.06003,1.66244 -0.08099,2.117018 0.0542,0.470185 0.365356,2.575584 0.423031,2.991568 0.04249,0.30646 -0.368396,3.474873 -0.36985,3.538129 -0.0013,0.05581 -1.235868,3.001137 -1.184874,3.065077 0.01866,0.0234 -2.246633,0.37621 -2.162343,0.464671 0.05901,0.06193 2.135093,-0.370902 2.193559,-0.45867 0.262466,-1.060042 0.433608,-2.246608 1.125732,-3.056516 0.07661,-0.103491 0.395483,-3.608463 0.426199,-3.441889 0.51126,2.772571 1.158994,4.296038 2.040115,6.470101 0.739192,0.766724 1.802688,1.144445 2.966645,1.401664 0.416426,0.03593 0.558156,-0.06422 0.786979,-0.121222 l 0.258763,-13.091815 -1.372003,-1.622844 c -1.396085,-0.01354 -0.799606,0.08817 -1.851981,-0.540856 -0.593279,-0.426028 -1.552879,-1.7726 -1.549455,-1.873535 -0.121029,0.272156 0.503203,1.157769 1.140908,1.630725 0.930838,0.605677 1.145014,0.948821 2.298543,0.706218 l 1.350044,-0.283242"
       class="UnoptimicedTransforms"
       sodipodi:nodetypes="ccssccccccccssssssssssssscssssccscccccccccc"
       transform="translate(30.113256,73.554621)" />
    <path
       style="display:none;fill:none;fill-opacity:1;stroke:#000000;stroke-width:0.652964;stroke-linecap:round;stroke-linejoin:round;stroke-dasharray:none;stroke-opacity:1"
       d="m 102.24836,72.891628 -0.62385,-0.603223 0.20092,0.583976 -0.0709,0.05478 -0.15264,0.571123 c -0.30178,1.351986 -1.0572,2.416009 -2.518881,3.031719 1.315341,-0.633452 2.117931,-1.614727 2.384061,-2.959909 -0.4387,-0.472382 -0.7592,-0.985756 -2.048776,-1.163067 -1.153726,0.04178 -2.758441,0.502294 -2.70836,2.440345 -0.267947,1.837119 1.319661,1.499712 2.369503,1.792513 l -0.446494,1.127306 -2.605992,-1.262417 -1.147448,-3.251585 1.112672,3.233364 2.614875,1.377976 -0.591571,1.877154 -2.59718,2.461961 -0.692527,5.09924 0.689594,-5.075242 2.601679,-2.462166 1.313105,5.643828 2.88242,1.493751 -2.850521,-1.51847 -0.873367,-4.030059 -0.294483,-0.466051 -4.044959,7.575169 -1.536309,4.370838 c -0.619468,2.055594 -1.679936,4.147419 -1.302474,6.12111 0.15241,4.014278 1.75476,3.266358 3.100645,3.360778 1.567123,-0.39433 2.603992,-1.14735 3.596844,-1.93015 l 2.843014,1.50503 1.35861,0.11766 -1.32091,-0.15839 -2.873491,-1.4654 c 1.20158,-1.311552 2.834781,-1.960389 4.345481,-2.797305 -0.14155,-3.349505 0.52502,-5.266383 -0.42879,-10.055878 l -0.62408,-1.141205 c -2.41995,-1.863421 -2.095125,-3.682325 -3.019501,-5.521489 m 4.055701,-7.977615 0.62385,-0.603223 -0.20092,0.583976 0.0709,0.05478 0.15264,0.571123 c 0.30178,1.351986 1.0572,2.416009 2.51888,3.031719 -1.31534,-0.633452 -2.11793,-1.614727 -2.38406,-2.959909 0.4387,-0.472382 0.7592,-0.985756 2.04878,-1.163067 1.15372,0.04178 2.75844,0.502294 2.70836,2.440345 0.26794,1.837119 -1.31966,1.499712 -2.36951,1.792513 l 0.4465,1.127306 2.60599,-1.262417 1.14745,-3.251585 -1.11267,3.233364 -2.61488,1.377976 0.59157,1.877154 2.59718,2.461961 0.69253,5.09924 -0.6896,-5.075242 -2.60168,-2.462166 -1.3131,5.643828 -2.88242,1.493751 2.85052,-1.51847 0.87337,-4.030059 0.29448,-0.466051 4.04496,7.575169 1.53631,4.370838 c 0.61947,2.055594 1.67994,4.147419 1.30247,6.12111 -0.15241,4.014278 -1.75476,3.266358 -3.10064,3.360778 -1.56712,-0.39433 -2.60399,-1.14735 -3.59685,-1.93015 l -2.84301,1.50503 -1.35861,0.11766 1.32091,-0.15839 2.87349,-1.4654 c -1.20158,-1.311552 -2.83478,-1.960389 -4.34548,-2.797305 0.14155,-3.349505 -0.52502,-5.266383 0.42879,-10.055878 l 0.62408,-1.141205 c 2.41995,-1.863421 2.09513,-3.682325 3.0195,-5.521489"
       id="path30818"
       inkscape:path-effect="#path-effect30820"
       inkscape:original-d="m 102.24836,72.891628 -0.62385,-0.603223 0.20092,0.583976 -0.0709,0.05478 -0.15264,0.571123 c -0.30178,1.351986 -1.0572,2.416009 -2.518881,3.031719 1.315341,-0.633452 2.117931,-1.614727 2.384061,-2.959909 -0.4387,-0.472382 -0.7592,-0.985756 -2.048776,-1.163067 -1.153726,0.04178 -2.758441,0.502294 -2.70836,2.440345 -0.267947,1.837119 1.319661,1.499712 2.369503,1.792513 l -0.446494,1.127306 -2.605992,-1.262417 -1.147448,-3.251585 1.112672,3.233364 2.614875,1.377976 -0.591571,1.877154 -2.59718,2.461961 -0.692527,5.09924 0.689594,-5.075242 2.601679,-2.462166 1.313105,5.643828 2.88242,1.493751 -2.850521,-1.51847 -0.873367,-4.030059 -0.294483,-0.466051 -4.044959,7.575169 -1.536309,4.370838 c -0.619468,2.055594 -1.679936,4.147419 -1.302474,6.12111 0.15241,4.014278 1.75476,3.266358 3.100645,3.360778 1.567123,-0.39433 2.603992,-1.14735 3.596844,-1.93015 l 2.843014,1.50503 1.35861,0.11766 -1.32091,-0.15839 -2.873491,-1.4654 c 1.20158,-1.311552 2.834781,-1.960389 4.345481,-2.797305 -0.14155,-3.349505 0.52502,-5.266383 -0.42879,-10.055878 l -0.62408,-1.141205 c -2.41995,-1.863421 -2.095125,-3.682325 -3.019501,-5.521489"
       class="UnoptimicedTransforms"
       sodipodi:nodetypes="cccccccccccccccccccccccccccccccccccccc"
       transform="matrix(0.76573906,0,0,0.76573906,27.433052,88.345218)" />
    <path
       style="display:none;fill:none;fill-opacity:1;stroke:#000000;stroke-width:1.25309;stroke-linecap:round;stroke-linejoin:round;stroke-dasharray:none;stroke-opacity:1"
       d="m 52.336177,113.00178 c -0.847002,-0.29089 -1.46356,0.0582 -2.17586,0.1414 l -5.058077,-9.73068 -3.768679,2.29484 3.782417,-2.24475 4.990616,9.86465 c -0.546813,1.58872 -1.019805,3.6885 -2.76064,4.77407 -0.370495,0.23104 -0.763233,0.46308 -1.024077,1.18108 1.794566,0.86429 3.903527,1.70183 6.047425,1.53318 -2.03928,0.0326 -4.178029,-0.69313 -6.00263,-1.57363 l -4.064826,2.74549 -5.569823,-5.83389 0.09107,-3.27705 -0.04062,3.27014 c 1.916816,2.77617 3.689088,4.20519 5.482733,5.8334 l -2.165146,1.49454 c -0.73049,0.32558 -1.153367,0.64825 -1.5261,0.97044 -0.464582,0.59396 -0.716361,1.14751 -0.453548,1.60334 0.545609,0.90409 1.402195,1.65971 2.397263,1.65874 3.831504,0.80726 7.705512,1.50739 11.908674,1.37785 -3.354671,0.11874 -6.874609,0.0591 -9.915957,-1.12566 1.889068,5.70077 5.231701,10.90439 5.664243,17.10333 0.09629,1.70899 1.35931,2.43662 2.129349,3.5789 -2.528838,2.88614 -4.305649,6.04714 -5.78647,9.31633 1.471313,-3.35991 3.285103,-6.52451 5.762183,-9.31084 l 0.01629,0.042 0.0255,0.0127 c 0.599749,0.75186 1.067043,0.85917 1.572333,1.15137 l 0.407335,0.10699 -0.196422,-0.053 c -0.671439,-0.32003 -1.415622,-0.54447 -1.801769,-1.23935 -0.735293,-1.2322 -2.100787,-1.82369 -2.138734,-3.76486 -0.483769,-6.40365 -3.765163,-11.30181 -5.647744,-16.95271 l -2.145311,-0.2565 c -0.853278,-0.1191 -1.52879,-0.65584 -2.09856,-1.44101 l -0.273968,7.23449 0.359899,1.98336 -1.469143,0.59938 c -0.675497,4.48957 -2.624591,9.34885 -2.025305,13.46837 l -3.101104,2.36075 3.088294,-2.36587 c -0.30011,-4.28701 1.343033,-8.95733 2.024788,-13.43802 l 1.43176,-0.5877 c 0.491987,4.59455 1.078124,9.12118 2.433271,13.09303 l 1.063249,2.71599 c -1.017961,0.90614 -2.034455,1.8133 -2.04711,3.40963 l -0.855639,9.6721 -2.726246,2.72208 2.734111,-2.69424 0.854384,-9.72557 2.037631,-3.44072 2.62597,6.75722 c 0.471256,1.49379 1.333451,2.52108 2.295364,3.42938 1.077201,0.38821 2.142879,0.78693 3.510512,0.91048 l 0.679077,0.50803 c 0.659569,0.12199 1.061932,0.10933 1.545291,0.13907 m 0.01331,-50.00209 c 0.847002,-0.29089 1.46356,0.0582 2.17586,0.1414 l 5.058077,-9.73068 3.768679,2.29484 -3.782417,-2.24475 -4.990616,9.86465 c 0.546813,1.58872 1.019805,3.6885 2.76064,4.77407 0.370495,0.23104 0.763233,0.46308 1.024077,1.18108 -1.794566,0.86429 -3.903527,1.70183 -6.047425,1.53318 2.03928,0.0326 4.178029,-0.69313 6.00263,-1.57363 l 4.064826,2.74549 5.569823,-5.83389 -0.09107,-3.27705 0.04062,3.27014 c -1.916816,2.77617 -3.689088,4.20519 -5.482733,5.8334 l 2.165146,1.49454 c 0.73049,0.32558 1.153367,0.64825 1.5261,0.97044 0.464582,0.59396 0.716361,1.14751 0.453548,1.60334 -0.545609,0.90409 -1.402195,1.65971 -2.397263,1.65874 -3.831504,0.80726 -7.705512,1.50739 -11.908674,1.37785 3.354671,0.11874 6.874609,0.0591 9.915957,-1.12566 -1.889068,5.70077 -5.231701,10.90439 -5.664243,17.10333 -0.09629,1.70899 -1.35931,2.43662 -2.129349,3.5789 2.528838,2.88614 4.305649,6.04714 5.78647,9.31633 -1.471313,-3.35991 -3.285103,-6.52451 -5.762183,-9.31084 l -0.01629,0.042 -0.0255,0.0127 c -0.599749,0.75186 -1.067043,0.85917 -1.572333,1.15137 l -0.407335,0.10699 0.196422,-0.053 c 0.671439,-0.32003 1.415622,-0.54447 1.801769,-1.23935 0.735293,-1.2322 2.100787,-1.82369 2.138734,-3.76486 0.483769,-6.40365 3.765163,-11.30181 5.647744,-16.95271 l 2.145311,-0.2565 c 0.853278,-0.1191 1.52879,-0.65584 2.09856,-1.44101 l 0.273968,7.23449 -0.359899,1.98336 1.469143,0.59938 c 0.675497,4.48957 2.624591,9.34885 2.025305,13.46837 l 3.101104,2.36075 -3.088294,-2.36587 c 0.30011,-4.28701 -1.343033,-8.95733 -2.024788,-13.43802 l -1.43176,-0.5877 c -0.491987,4.59455 -1.078124,9.12118 -2.433271,13.09303 l -1.063249,2.71599 c 1.017961,0.90614 2.034455,1.8133 2.04711,3.40963 l 0.855639,9.6721 2.726246,2.72208 -2.734111,-2.69424 -0.854384,-9.72557 -2.037631,-3.44072 -2.62597,6.75722 c -0.471256,1.49379 -1.333451,2.52108 -2.295364,3.42938 -1.077201,0.38821 -2.142879,0.78693 -3.510512,0.91048 l -0.679077,0.50803 c -0.659569,0.12199 -1.061932,0.10933 -1.545291,0.13907"
       id="path55506"
       inkscape:path-effect="#path-effect55508"
       inkscape:original-d="m 52.336177,113.00178 c -0.847002,-0.29089 -1.46356,0.0582 -2.17586,0.1414 l -5.058077,-9.73068 -3.768679,2.29484 3.782417,-2.24475 4.990616,9.86465 c -0.546813,1.58872 -1.019805,3.6885 -2.76064,4.77407 -0.370495,0.23104 -0.763233,0.46308 -1.024077,1.18108 1.794566,0.86429 3.903527,1.70183 6.047425,1.53318 -2.03928,0.0326 -4.178029,-0.69313 -6.00263,-1.57363 l -4.064826,2.74549 -5.569823,-5.83389 0.09107,-3.27705 -0.04062,3.27014 c 1.916816,2.77617 3.689088,4.20519 5.482733,5.8334 l -2.165146,1.49454 c -0.73049,0.32558 -1.153367,0.64825 -1.5261,0.97044 -0.464582,0.59396 -0.716361,1.14751 -0.453548,1.60334 0.545609,0.90409 1.402195,1.65971 2.397263,1.65874 3.831504,0.80726 7.705512,1.50739 11.908674,1.37785 -3.354671,0.11874 -6.874609,0.0591 -9.915957,-1.12566 1.889068,5.70077 5.231701,10.90439 5.664243,17.10333 0.09629,1.70899 1.35931,2.43662 2.129349,3.5789 -2.528838,2.88614 -4.305649,6.04714 -5.78647,9.31633 1.471313,-3.35991 3.285103,-6.52451 5.762183,-9.31084 l 0.01629,0.042 0.0255,0.0127 c 0.599749,0.75186 1.067043,0.85917 1.572333,1.15137 l 0.407335,0.10699 -0.196422,-0.053 c -0.671439,-0.32003 -1.415622,-0.54447 -1.801769,-1.23935 -0.735293,-1.2322 -2.100787,-1.82369 -2.138734,-3.76486 -0.483769,-6.40365 -3.765163,-11.30181 -5.647744,-16.95271 l -2.145311,-0.2565 c -0.853278,-0.1191 -1.52879,-0.65584 -2.09856,-1.44101 l -0.273968,7.23449 0.359899,1.98336 -1.469143,0.59938 c -0.675497,4.48957 -2.624591,9.34885 -2.025305,13.46837 l -3.101104,2.36075 3.088294,-2.36587 c -0.30011,-4.28701 1.343033,-8.95733 2.024788,-13.43802 l 1.43176,-0.5877 c 0.491987,4.59455 1.078124,9.12118 2.433271,13.09303 l 1.063249,2.71599 c -1.017961,0.90614 -2.034455,1.8133 -2.04711,3.40963 l -0.855639,9.6721 -2.726246,2.72208 2.734111,-2.69424 0.854384,-9.72557 2.037631,-3.44072 2.62597,6.75722 c 0.471256,1.49379 1.333451,2.52108 2.295364,3.42938 1.077201,0.38821 2.142879,0.78693 3.510512,0.91048 l 0.679077,0.50803 c 0.659569,0.12199 1.061932,0.10933 1.545291,0.13907"
       class="UnoptimicedTransforms"
       sodipodi:nodetypes="ccccccsccccccccccccccccccccccccccccccccccccccccccccccccc"
       transform="matrix(0.39901312,0,0,0.39901312,84.855503,101.22813)" />
    <path
       style="display:none;fill:none;fill-opacity:1;stroke:#000000;stroke-width:0.853533;stroke-linecap:round;stroke-linejoin:round;stroke-dasharray:none;stroke-opacity:1"
       d="m 105.08655,134.9255 c -0.50759,0.0216 -0.88015,0.007 -1.2614,0.11573 l -4.871931,-4.90728 c -1.219809,-0.49706 -1.72738,-0.8272 -2.451184,-1.20802 0.93132,0.88898 1.966395,1.47072 3.071159,1.84607 1.203676,1.78844 2.859516,2.8345 4.265926,4.25901 -1.80225,-0.0934 -3.06444,0.33957 -4.277918,0.69726 -0.945964,0.34325 -1.279783,0.8897 -1.442136,1.49306 0.659286,-0.94301 1.238898,-0.14725 1.843401,0.10528 0.535973,0.98819 1.056023,1.98178 0.689433,3.27522 l -0.3213,1.24765 c -0.470006,0.50022 -1.058318,0.66546 -1.755918,0.52127 0.617579,-0.0432 1.259676,0.0279 1.761988,-0.55249 l 0.28274,-1.20638 c 0.54567,-1.44893 -0.0411,-2.3791 -0.701142,-3.27569 -0.581444,-0.28409 -1.110834,-0.97582 -1.838759,-0.11281 -0.310105,1.51603 -1.04304,2.76376 0.04975,5.16998 2.225591,0.52114 4.556831,0.61442 6.945551,0.47494 l -2.45076,0.13616 c 0.21768,0.33224 0.12231,0.71491 -0.67373,1.21044 l 2.98927,0.27885 -3.03544,-0.25011 -0.98465,0.79783 -2.455196,-0.64599 c -1.681753,-1.63599 -2.395472,-3.76039 -3.404612,-5.73574 l -2.428648,-0.20226 0.141685,0.20021 0.919172,-0.11538 1.3857,0.14916 c 1.032875,1.94747 1.640435,4.025 3.357678,5.7632 l 2.444691,0.61768 -0.69868,0.56536 c 0.23863,1.22124 -0.0846,2.51915 0.82984,3.64817 l 0.32813,0.10267 c -0.23072,1.33583 -0.35193,2.67165 -0.0255,4.00748 l -1.05827,0.59306 -1.717898,-0.16679 -2.628246,4.87571 -2.245339,0.36166 2.240678,-0.35039 2.940008,-4.82687 1.186667,0.23229 1.29096,-0.40179 -0.0175,1.08949 c 0.60923,1.0751 1.07066,2.29745 2.1853,2.86902 l -3.860748,2.18208 c -0.604339,1.70689 -1.796792,3.34612 -1.507792,5.15577 l 0.677862,2.62123 0.504278,0.42501 -0.438918,-0.1723 -0.718362,-2.89027 c -0.260558,-1.69655 0.484789,-3.39309 1.48158,-5.08964 l 3.81315,-2.24658 0.688,0.85365 0.37975,0.0845 c -1.42035,0.69332 -2.88844,1.3171 -3.68247,2.79225 -0.51142,1.32745 -0.21957,2.43694 0.16567,3.52108 0.57332,2.12357 2.40932,2.48857 4.15388,3.01268 -2.17679,-0.19988 -3.09579,-1.29417 -4.14722,-2.99278 -0.4379,-1.19723 -0.61769,-2.41039 -0.23832,-3.65809 0.89932,-1.50145 2.44228,-2.05855 3.97976,-2.6237 l 0.28196,0.0627 -0.86939,-0.19821 c -1.15674,-1.06814 -2.23707,-2.20558 -2.84083,-3.77528 -0.12689,-1.77805 -0.44377,-3.55611 0.0545,-5.33416 l 0.95067,0.29314 c 0.81992,0.56591 1.62525,1.16298 2.65787,1.27439 -1.11308,0.005 -1.84044,-0.69743 -2.60794,-1.32655 -0.52694,0.0874 -0.91603,-0.20342 -1.33669,-0.40765 -0.85226,-0.9778 -0.57336,-2.39 -0.84952,-3.58904 l 0.0619,0.19453 c -2.633446,1.32111 -5.035889,3.13037 -8.013164,3.72492 -1.60573,0.0322 -3.282719,-0.059 -4.525312,0.60207 l -4.011351,2.13091 -2.740885,1.65523 c -1.385466,1.04725 -0.352358,1.31037 -0.01975,1.8006 1.720656,1.54975 3.742,1.45884 5.675111,1.84937 l 0.832994,9.2e-4 c 1.961295,-0.90654 3.069359,-1.87185 4.163336,-2.83813 l 2.542645,-1.00339 c 1.221431,-2.42812 3.695185,-4.63191 6.003986,-6.38757 -2.451001,1.76584 -4.866002,4.09644 -6.002452,6.40034 1.217093,-0.56149 2.442885,-1.10783 3.261616,-2.36353 l 1.25947,-1.2647 0.950087,-1.04038 c 0.781739,-0.93704 0.666229,-2.18626 0.999239,-3.27943 m 4.52913,-10.90191 c 0.50759,0.0216 0.88015,0.007 1.2614,0.11573 l 4.87193,-4.90728 c 1.21981,-0.49706 1.72738,-0.8272 2.45119,-1.20802 -0.93132,0.88898 -1.9664,1.47072 -3.07116,1.84607 -1.20368,1.78844 -2.85952,2.8345 -4.26593,4.25901 1.80225,-0.0934 3.06444,0.33957 4.27792,0.69726 0.94596,0.34325 1.27978,0.8897 1.44213,1.49306 -0.65928,-0.94301 -1.23889,-0.14725 -1.8434,0.10528 -0.53597,0.98819 -1.05602,1.98178 -0.68943,3.27522 l 0.3213,1.24765 c 0.47001,0.50022 1.05832,0.66546 1.75592,0.52127 -0.61758,-0.0432 -1.25968,0.0279 -1.76199,-0.55249 l -0.28274,-1.20638 c -0.54567,-1.44893 0.0411,-2.3791 0.70114,-3.27569 0.58145,-0.28409 1.11084,-0.97582 1.83876,-0.11281 0.31011,1.51603 1.04304,2.76376 -0.0497,5.16998 -2.22559,0.52114 -4.55683,0.61442 -6.94555,0.47494 l 2.45076,0.13616 c -0.21768,0.33224 -0.12231,0.71491 0.67373,1.21044 l -2.98927,0.27885 3.03544,-0.25011 0.98465,0.79783 2.4552,-0.64599 c 1.68175,-1.63599 2.39547,-3.76039 3.40461,-5.73574 l 2.42865,-0.20226 -0.14169,0.20021 -0.91917,-0.11538 -1.3857,0.14916 c -1.03288,1.94747 -1.64044,4.025 -3.35768,5.7632 l -2.44469,0.61768 0.69868,0.56536 c -0.23863,1.22124 0.0846,2.51915 -0.82984,3.64817 l -0.32813,0.10267 c 0.23072,1.33583 0.35193,2.67165 0.0255,4.00748 l 1.05827,0.59306 1.7179,-0.16679 2.62824,4.87571 2.24534,0.36166 -2.24068,-0.35039 -2.94,-4.82687 -1.18667,0.23229 -1.29096,-0.40179 0.0175,1.08949 c -0.60923,1.0751 -1.07066,2.29745 -2.1853,2.86902 l 3.86075,2.18208 c 0.60434,1.70689 1.79679,3.34612 1.50779,5.15577 l -0.67786,2.62123 -0.50428,0.42501 0.43892,-0.1723 0.71836,-2.89027 c 0.26056,-1.69655 -0.48479,-3.39309 -1.48158,-5.08964 l -3.81315,-2.24658 -0.688,0.85365 -0.37975,0.0845 c 1.42035,0.69332 2.88844,1.3171 3.68247,2.79225 0.51142,1.32745 0.21957,2.43694 -0.16567,3.52108 -0.57332,2.12357 -2.40932,2.48857 -4.15388,3.01268 2.17679,-0.19988 3.09579,-1.29417 4.14722,-2.99278 0.4379,-1.19723 0.61769,-2.41039 0.23832,-3.65809 -0.89932,-1.50145 -2.44228,-2.05855 -3.97976,-2.6237 l -0.28196,0.0627 0.86939,-0.19821 c 1.15674,-1.06814 2.23707,-2.20558 2.84083,-3.77528 0.12689,-1.77805 0.44377,-3.55611 -0.0545,-5.33416 l -0.95067,0.29314 c -0.81992,0.56591 -1.62525,1.16298 -2.65787,1.27439 1.11308,0.005 1.84044,-0.69743 2.60794,-1.32655 0.52694,0.0874 0.91603,-0.20342 1.33669,-0.40765 0.85226,-0.9778 0.57336,-2.39 0.84952,-3.58904 l -0.0619,0.19453 c 2.63345,1.32111 5.03589,3.13037 8.01316,3.72492 1.60573,0.0322 3.28272,-0.059 4.52532,0.60207 l 4.01135,2.13091 2.74088,1.65523 c 1.38547,1.04725 0.35236,1.31037 0.0198,1.8006 -1.72065,1.54975 -3.742,1.45884 -5.67511,1.84937 l -0.83299,9.2e-4 c -1.9613,-0.90654 -3.06936,-1.87185 -4.16334,-2.83813 l -2.54264,-1.00339 c -1.22144,-2.42812 -3.69519,-4.63191 -6.00399,-6.38757 2.451,1.76584 4.866,4.09644 6.00245,6.40034 -1.21709,-0.56149 -2.44288,-1.10783 -3.26161,-2.36353 l -1.25947,-1.2647 -0.95009,-1.04038 c -0.78174,-0.93704 -0.66623,-2.18626 -0.99924,-3.27943"
       id="path55510"
       inkscape:path-effect="#path-effect55512"
       inkscape:original-d="m 105.08655,134.9255 c -0.50759,0.0216 -0.88015,0.007 -1.2614,0.11573 l -4.871931,-4.90728 c -1.219809,-0.49706 -1.72738,-0.8272 -2.451184,-1.20802 0.93132,0.88898 1.966395,1.47072 3.071159,1.84607 1.203676,1.78844 2.859516,2.8345 4.265926,4.25901 -1.80225,-0.0934 -3.06444,0.33957 -4.277918,0.69726 -0.945964,0.34325 -1.279783,0.8897 -1.442136,1.49306 0.659286,-0.94301 1.238898,-0.14725 1.843401,0.10528 0.535973,0.98819 1.056023,1.98178 0.689433,3.27522 l -0.3213,1.24765 c -0.470006,0.50022 -1.058318,0.66546 -1.755918,0.52127 0.617579,-0.0432 1.259676,0.0279 1.761988,-0.55249 l 0.28274,-1.20638 c 0.54567,-1.44893 -0.0411,-2.3791 -0.701142,-3.27569 -0.581444,-0.28409 -1.110834,-0.97582 -1.838759,-0.11281 -0.310105,1.51603 -1.04304,2.76376 0.04975,5.16998 2.225591,0.52114 4.556831,0.61442 6.945551,0.47494 l -2.45076,0.13616 c 0.21768,0.33224 0.12231,0.71491 -0.67373,1.21044 l 2.98927,0.27885 -3.03544,-0.25011 -0.98465,0.79783 -2.455196,-0.64599 c -1.681753,-1.63599 -2.395472,-3.76039 -3.404612,-5.73574 l -2.428648,-0.20226 0.141685,0.20021 0.919172,-0.11538 1.3857,0.14916 c 1.032875,1.94747 1.640435,4.025 3.357678,5.7632 l 2.444691,0.61768 -0.69868,0.56536 c 0.23863,1.22124 -0.0846,2.51915 0.82984,3.64817 l 0.32813,0.10267 c -0.23072,1.33583 -0.35193,2.67165 -0.0255,4.00748 l -1.05827,0.59306 -1.717898,-0.16679 -2.628246,4.87571 -2.245339,0.36166 2.240678,-0.35039 2.940008,-4.82687 1.186667,0.23229 1.29096,-0.40179 -0.0175,1.08949 c 0.60923,1.0751 1.07066,2.29745 2.1853,2.86902 l -3.860748,2.18208 c -0.604339,1.70689 -1.796792,3.34612 -1.507792,5.15577 l 0.677862,2.62123 0.504278,0.42501 -0.438918,-0.1723 -0.718362,-2.89027 c -0.260558,-1.69655 0.484789,-3.39309 1.48158,-5.08964 l 3.81315,-2.24658 0.688,0.85365 0.37975,0.0845 c -1.42035,0.69332 -2.88844,1.3171 -3.68247,2.79225 -0.51142,1.32745 -0.21957,2.43694 0.16567,3.52108 0.57332,2.12357 2.40932,2.48857 4.15388,3.01268 -2.17679,-0.19988 -3.09579,-1.29417 -4.14722,-2.99278 -0.4379,-1.19723 -0.61769,-2.41039 -0.23832,-3.65809 0.89932,-1.50145 2.44228,-2.05855 3.97976,-2.6237 l 0.28196,0.0627 -0.86939,-0.19821 c -1.15674,-1.06814 -2.23707,-2.20558 -2.84083,-3.77528 -0.12689,-1.77805 -0.44377,-3.55611 0.0545,-5.33416 l 0.95067,0.29314 c 0.81992,0.56591 1.62525,1.16298 2.65787,1.27439 -1.11308,0.005 -1.84044,-0.69743 -2.60794,-1.32655 -0.52694,0.0874 -0.91603,-0.20342 -1.33669,-0.40765 -0.85226,-0.9778 -0.57336,-2.39 -0.84952,-3.58904 l 0.0619,0.19453 c -2.633446,1.32111 -5.035889,3.13037 -8.013164,3.72492 -1.60573,0.0322 -3.282719,-0.059 -4.525312,0.60207 l -4.011351,2.13091 -2.740885,1.65523 c -1.385466,1.04725 -0.352358,1.31037 -0.01975,1.8006 1.720656,1.54975 3.742,1.45884 5.675111,1.84937 l 0.832994,9.2e-4 c 1.961295,-0.90654 3.069359,-1.87185 4.163336,-2.83813 l 2.542645,-1.00339 c 1.221431,-2.42812 3.695185,-4.63191 6.003986,-6.38757 -2.451001,1.76584 -4.866002,4.09644 -6.002452,6.40034 1.217093,-0.56149 2.442885,-1.10783 3.261616,-2.36353 l 1.25947,-1.2647 0.950087,-1.04038 c 0.781739,-0.93704 0.666229,-2.18626 0.999239,-3.27943"
       class="UnoptimicedTransforms"
       sodipodi:nodetypes="cccccccccccccccccccccccccccccccccccccccccccccccccccccccccccccccccccccccccccccccccccccc"
       transform="matrix(0.58580038,0,0,0.58580038,44.187646,68.214277)" />
    <path
       style="display:inline;fill:none;fill-opacity:1;stroke:#000000;stroke-width:0.835272;stroke-linecap:round;stroke-linejoin:round;stroke-dasharray:none;stroke-opacity:1"
       d="m 60.269808,202.97061 -0.154915,-0.443 -0.114683,0.5598 -1.368682,0.59295 c -2.172354,-2.25517 -6.90491,-5.63849 -9.691897,-7.07604 l 0.731843,0.44184 -0.754825,0.0988 0.0073,-0.54283 c 2.717728,1.20169 7.69327,4.81027 9.707011,7.07827 -0.677332,0.47041 -1.769166,0.56321 -1.894719,1.53629 -0.57833,1.12869 0.365664,1.28868 0.877154,1.72389 l 1.606716,-0.90409 -0.752185,-2.01279 0.759008,1.98536 -1.5369,0.93549 c -0.376515,0.51211 -0.618646,0.7759 -0.769523,1.00369 -0.02883,0.0435 -5.018147,-2.21837 -6.492737,-2.85003 -0.08736,-0.0374 -2.06337,-3.27247 -2.124297,-3.29763 -0.008,-0.003 -1.503946,-0.60499 -1.496419,-0.58079 0.01108,0.0356 1.534096,0.71189 1.573446,0.79664 0.316433,0.68153 1.439539,2.74856 1.641483,2.92046 0.229748,0.19557 6.904448,2.93566 6.882984,3.05462 -0.0384,0.21284 -0.214908,0.9108 -0.197339,1.3513 0.0096,4.53977 0.961962,9.94207 1.641968,14.07022 0.342395,1.16902 0.931112,1.94771 1.909297,2.27196 -0.834092,-0.47567 -1.933976,-1.22581 -2.227452,-2.43697 -0.658895,-4.17371 -1.431917,-9.58541 -1.344645,-13.95698 -7.964097,-1.67448 -15.781907,-2.36866 -25.162113,2.4043 -1.251895,0.42955 -2.678955,0.50614 -2.8966,3.01974 -0.413322,5.02437 9.096116,8.85118 9.096116,8.85118 0,0 5.919859,3.27768 7.107988,3.10926 0.160151,0.008 4.438594,-0.78172 6.000362,-1.0832 0.06542,-0.0126 -2.773161,0.44719 -4.914954,-2.33048 -1.525742,-1.97872 -5.529035,-3.30412 -7.520563,-3.75133 -2.687267,-0.60345 -3.582883,-1.6754 -3.582883,-1.6754 -2.700965,-1.06842 -0.322399,-4.41144 0.51207,-4.46647 l 21.02509,-2.84449 -21.125252,2.84637 c -0.797085,1.35562 -2.844115,2.48066 -0.404421,4.43338 0,0 1.242009,1.72383 3.527947,1.72501 2.707157,0.001 5.484111,1.78433 7.627146,3.71687 2.227581,2.00878 4.831791,2.33733 4.870078,2.3291 1.83706,-0.39469 1.739311,-0.4965 3.142202,-1.26223 1.883544,-1.02808 2.747814,-8.69392 2.899662,-8.95935 l 1.203569,8.2448 1.910256,2.22448 0.218854,2.0081 c -0.493908,-0.0859 -1.093559,2.90504 -1.538627,2.77328 -3.335327,-0.9874 -5.407693,-3.16121 -7.842778,-4.99429 2.475266,2.00453 4.571864,4.33083 7.845538,5.02524 0.325543,0.0691 1.195658,-2.87743 1.546809,-2.80613 l -0.181909,4.54877 -1.071584,2.07432 -1.950401,1.04499 c -0.490973,0.84949 -1.054872,2.41527 -1.195007,-0.18124 -1.235099,-0.39896 -2.397779,-1.27225 -3.800041,-0.57631 -0.730593,1.95694 -0.6562,0.002 -0.953771,-0.14465 -0.608915,-1.0381 -0.560434,-2.36168 -2.05556,-3.01492 -0.610632,0.11671 -0.665553,-0.0681 -0.320463,-0.47003 -0.02415,-0.99897 -0.79059,-1.84738 -1.295843,-2.2705 -0.08021,-0.0672 -1.205085,2.54647 -1.29044,2.48546 -0.0693,-0.0495 1.283829,-2.49414 1.212279,-2.54099 -0.122069,-0.0799 -0.246665,-0.15684 -0.371245,-0.23376 -0.522619,0.069 -0.818779,-0.003 -0.368114,-0.53992 l -0.925642,-1.35765 m 14.720183,-23.68174 0.154915,-0.443 0.114683,0.5598 1.368682,0.59295 c 2.172354,-2.25517 6.90491,-5.63849 9.691897,-7.07604 l -0.731843,0.44184 0.754825,0.0988 -0.0073,-0.54283 c -2.717728,1.20169 -7.69327,4.81027 -9.707011,7.07827 0.677332,0.47041 1.769166,0.56321 1.894719,1.53629 0.57833,1.12869 -0.365664,1.28868 -0.877154,1.72389 l -1.606716,-0.90409 0.752185,-2.01279 -0.759008,1.98536 1.5369,0.93549 c 0.376515,0.51211 0.618646,0.7759 0.769523,1.00369 0.02883,0.0435 5.018147,-2.21837 6.492737,-2.85003 0.08736,-0.0374 2.06337,-3.27247 2.124297,-3.29763 0.008,-0.003 1.503946,-0.60499 1.496419,-0.58079 -0.01108,0.0356 -1.534096,0.71189 -1.573446,0.79664 -0.316433,0.68153 -1.439539,2.74856 -1.641483,2.92046 -0.229748,0.19557 -6.904448,2.93566 -6.882984,3.05462 0.0384,0.21284 0.214908,0.9108 0.197339,1.3513 -0.0096,4.53977 -0.961962,9.94207 -1.641968,14.07022 -0.342395,1.16902 -0.931112,1.94771 -1.909297,2.27196 0.834092,-0.47567 1.933976,-1.22581 2.227452,-2.43697 0.658895,-4.17371 1.431917,-9.58541 1.344645,-13.95698 7.964097,-1.67448 15.781907,-2.36866 25.162113,2.4043 1.251895,0.42955 2.678955,0.50614 2.8966,3.01974 0.413322,5.02437 -9.096116,8.85118 -9.096116,8.85118 0,0 -5.919859,3.27768 -7.107988,3.10926 -0.160151,0.008 -4.438594,-0.78172 -6.000362,-1.0832 -0.06542,-0.0126 2.773161,0.44719 4.914954,-2.33048 1.525742,-1.97872 5.529035,-3.30412 7.520563,-3.75133 2.687267,-0.60345 3.582883,-1.6754 3.582883,-1.6754 2.700965,-1.06842 0.322399,-4.41144 -0.51207,-4.46647 l -21.02509,-2.84449 21.125252,2.84637 c 0.797085,1.35562 2.844115,2.48066 0.404421,4.43338 0,0 -1.242009,1.72383 -3.527947,1.72501 -2.707157,0.001 -5.484111,1.78433 -7.627146,3.71687 -2.227581,2.00878 -4.831791,2.33733 -4.870078,2.3291 -1.83706,-0.39469 -1.739311,-0.4965 -3.142202,-1.26223 -1.883544,-1.02808 -2.747814,-8.69392 -2.899662,-8.95935 l -1.203569,8.2448 -1.910256,2.22448 -0.218854,2.0081 c 0.493908,-0.0859 1.093559,2.90504 1.538627,2.77328 3.335327,-0.9874 5.407693,-3.16121 7.842778,-4.99429 -2.475266,2.00453 -4.571864,4.33083 -7.845538,5.02524 -0.325543,0.0691 -1.195658,-2.87743 -1.546809,-2.80613 l 0.181909,4.54877 1.071584,2.07432 1.950401,1.04499 c 0.490973,0.84949 1.054872,2.41527 1.195007,-0.18124 1.235099,-0.39896 2.397779,-1.27225 3.800041,-0.57631 0.730593,1.95694 0.6562,0.002 0.953771,-0.14465 0.608915,-1.0381 0.560434,-2.36168 2.05556,-3.01492 0.610632,0.11671 0.665553,-0.0681 0.320463,-0.47003 0.02415,-0.99897 0.79059,-1.84738 1.295843,-2.2705 0.08021,-0.0672 1.205085,2.54647 1.29044,2.48546 0.0693,-0.0495 -1.283829,-2.49414 -1.212279,-2.54099 0.122069,-0.0799 0.246665,-0.15684 0.371245,-0.23376 0.522619,0.069 0.818779,-0.003 0.368114,-0.53992 l 0.925642,-1.35765"
       id="path55527"
       inkscape:path-effect="#path-effect55529"
       inkscape:original-d="m 60.269808,202.97061 -0.154915,-0.443 -0.114683,0.5598 -1.368682,0.59295 c -2.172354,-2.25517 -6.90491,-5.63849 -9.691897,-7.07604 l 0.731843,0.44184 -0.754825,0.0988 0.0073,-0.54283 c 2.717728,1.20169 7.69327,4.81027 9.707011,7.07827 -0.677332,0.47041 -1.769166,0.56321 -1.894719,1.53629 -0.57833,1.12869 0.365664,1.28868 0.877154,1.72389 l 1.606716,-0.90409 -0.752185,-2.01279 0.759008,1.98536 -1.5369,0.93549 c -0.376515,0.51211 -0.618646,0.7759 -0.769523,1.00369 -0.02883,0.0435 -5.018147,-2.21837 -6.492737,-2.85003 -0.08736,-0.0374 -2.06337,-3.27247 -2.124297,-3.29763 -0.008,-0.003 -1.503946,-0.60499 -1.496419,-0.58079 0.01108,0.0356 1.534096,0.71189 1.573446,0.79664 0.316433,0.68153 1.439539,2.74856 1.641483,2.92046 0.229748,0.19557 6.904448,2.93566 6.882984,3.05462 -0.0384,0.21284 -0.214908,0.9108 -0.197339,1.3513 0.0096,4.53977 0.961962,9.94207 1.641968,14.07022 0.342395,1.16902 0.931112,1.94771 1.909297,2.27196 -0.834092,-0.47567 -1.933976,-1.22581 -2.227452,-2.43697 -0.658895,-4.17371 -1.431917,-9.58541 -1.344645,-13.95698 -7.964097,-1.67448 -15.781907,-2.36866 -25.162113,2.4043 -1.251895,0.42955 -2.678955,0.50614 -2.8966,3.01974 -0.413322,5.02437 9.096116,8.85118 9.096116,8.85118 0,0 5.919859,3.27768 7.107988,3.10926 0.160151,0.008 4.438594,-0.78172 6.000362,-1.0832 0.06542,-0.0126 -2.773161,0.44719 -4.914954,-2.33048 -1.525742,-1.97872 -5.529035,-3.30412 -7.520563,-3.75133 -2.687267,-0.60345 -3.582883,-1.6754 -3.582883,-1.6754 -2.700965,-1.06842 -0.322399,-4.41144 0.51207,-4.46647 l 21.02509,-2.84449 -21.125252,2.84637 c -0.797085,1.35562 -2.844115,2.48066 -0.404421,4.43338 0,0 1.242009,1.72383 3.527947,1.72501 2.707157,0.001 5.484111,1.78433 7.627146,3.71687 2.227581,2.00878 4.831791,2.33733 4.870078,2.3291 1.83706,-0.39469 1.739311,-0.4965 3.142202,-1.26223 1.883544,-1.02808 2.747814,-8.69392 2.899662,-8.95935 l 1.203569,8.2448 1.910256,2.22448 0.218854,2.0081 c -0.493908,-0.0859 -1.093559,2.90504 -1.538627,2.77328 -3.335327,-0.9874 -5.407693,-3.16121 -7.842778,-4.99429 2.475266,2.00453 4.571864,4.33083 7.845538,5.02524 0.325543,0.0691 1.195658,-2.87743 1.546809,-2.80613 l -0.181909,4.54877 -1.071584,2.07432 -1.950401,1.04499 c -0.490973,0.84949 -1.054872,2.41527 -1.195007,-0.18124 -1.235099,-0.39896 -2.397779,-1.27225 -3.800041,-0.57631 -0.730593,1.95694 -0.6562,0.002 -0.953771,-0.14465 -0.608915,-1.0381 -0.560434,-2.36168 -2.05556,-3.01492 -0.610632,0.11671 -0.665553,-0.0681 -0.320463,-0.47003 -0.02415,-0.99897 -0.79059,-1.84738 -1.295843,-2.2705 -0.08021,-0.0672 -1.205085,2.54647 -1.29044,2.48546 -0.0693,-0.0495 1.283829,-2.49414 1.212279,-2.54099 -0.122069,-0.0799 -0.246665,-0.15684 -0.371245,-0.23376 -0.522619,0.069 -0.818779,-0.003 -0.368114,-0.53992 l -0.925642,-1.35765"
       class="UnoptimicedTransforms"
       sodipodi:nodetypes="cccccccccccccccssssssscccccccccssssccccssssccccscscccccccccsssccc"
       transform="matrix(0.59860773,0,0,0.59860773,69.652853,24.56808)" />
    <path
       style="display:none;fill:none;fill-opacity:1;stroke:#000000;stroke-width:0.732151;stroke-linecap:round;stroke-linejoin:round;stroke-dasharray:none;stroke-opacity:1"
       d="m 54.666753,31.935835 c -0.09306,0.01978 -0.182919,0.02718 -0.288055,0.0936 -0.147452,0.06802 -0.266282,0.191461 -0.38465,0.315789 -0.115746,-0.147733 -0.19904,-0.277607 -0.364176,-0.452519 l -0.08643,-0.03737 -0.01895,-0.09356 c -0.06105,-0.101048 -0.110766,-0.21442 -0.21556,-0.267851 l -0.07022,-0.0051 0.0058,-0.07495 c -0.02216,-0.104168 -0.07676,-0.187087 -0.187626,-0.233141 l -0.06104,0.02005 -0.0053,-0.102438 c -0.04563,-0.104715 -0.104803,-0.200813 -0.21556,-0.264121 -0.06091,9.61e-4 -0.09688,0.02431 -0.075,0.09961 0.01191,0.112738 0.09906,0.191653 0.199485,0.264598 l 0.09193,0.0061 10e-4,0.07674 c 0.0066,0.10118 0.0539,0.166715 0.152194,0.187718 l 0.09238,0.01417 -0.01548,0.07839 c 0.01753,0.161647 0.124313,0.214549 0.226678,0.272833 l 0.103338,0.01129 0.0092,0.124165 c 0.07683,0.175998 0.216349,0.294388 0.348543,0.419512 l -0.359081,0.320261 -0.09572,0.06649 c 0.08399,0.246409 0.441581,0.767096 0.328397,1.074143 -0.210185,0.33505 -0.750801,0.511997 -0.992493,0.574333 0.245806,-0.06348 0.802945,-0.289688 1.001694,-0.570153 0.108216,-0.303482 -0.21756,-0.82444 -0.334826,-1.054145 -0.229905,0.08175 -0.463376,0.155306 -0.620248,0.404703 -0.340733,0.508545 -0.150001,0.848898 -0.04758,1.217199 l -0.366132,0.985605 c -0.17852,0.367888 -0.07031,0.62903 -0.08199,0.934803 l -0.362989,1.513376 C 51.27502,37.667839 50.514947,37.489404 49.752907,37.311304 l -0.241565,-0.793423 -0.23721,-0.208106 0.238495,0.206763 0.170131,0.870659 c 0.749309,0.189048 1.499848,0.37615 2.279352,0.517392 l -0.647275,2.717425 2.653702,2.859554 c 0.183438,0.202586 0.449332,0.294853 0.71292,0.306585 -0.124595,-0.0046 0.108885,23.894782 -0.0011,23.85469 -0.07749,-0.02825 -0.03972,-14.60433 -0.07965,-18.310976 -0.03228,-2.996411 -0.589901,-5.801411 -0.632153,-5.849701 l -2.659172,-2.862173 0.02725,0.524792 -0.0618,0.387641 c -0.88317,0.525487 -1.79324,0.93413 -2.628345,1.66839 l -2.246868,1.052359 -0.870873,0.470203 -0.304075,0.0665 0.142028,0.04367 -0.09676,0.133158 0.259376,-0.236711 0.868931,-0.472247 2.275426,-0.982692 c 0.989958,-0.340717 1.742051,-1.094115 2.586619,-1.687076 -0.160746,0.825363 -0.414481,1.663213 -0.387062,2.46331 l 0.144179,1.978976 -0.490507,-0.104464 c -1.166318,0.404011 -2.35735,0.760057 -2.994939,2.190223 -0.207993,2.080892 -0.785394,3.750661 -1.709759,5.495373 0.537671,1.519967 0.933995,3.20213 2.190543,3.897194 l -0.18437,1.895559 -0.160311,0.900248 0.09723,-0.40774 0.0606,0.407584 0.0018,-0.920024 0.305739,-1.956378 c -0.231307,-0.701271 -0.491572,-1.397893 -0.874608,-2.074796 -0.0084,-0.01493 -0.01695,-0.02985 -0.02552,-0.04476 -0.01079,-0.01878 -0.02168,-0.03754 -0.03266,-0.05628 -0.192607,-0.328671 -0.415439,-0.652488 -0.679331,-0.96971 0.904782,-1.264104 2.259439,-2.095684 2.738014,-3.83327 0.535546,-1.329254 1.015723,-2.562894 1.824572,-3.505875 0.059,2.23692 0.164914,4.713819 0.111608,6.376191 0.02276,1.454847 0.285576,2.366658 0.442183,3.518725 1.674731,2.830031 1.671342,4.475822 2.186268,6.487386 l 0.64712,2.933252 0.127623,3.185682 m 0.08724,-37.508551 c 0.09306,0.01978 0.182919,0.02718 0.288055,0.0936 0.147452,0.06802 0.266282,0.191461 0.38465,0.315789 0.115746,-0.147733 0.19904,-0.277607 0.364176,-0.452519 l 0.08643,-0.03737 0.01895,-0.09356 c 0.06105,-0.101048 0.110766,-0.21442 0.21556,-0.267851 l 0.07022,-0.0051 -0.0058,-0.07495 c 0.02216,-0.104168 0.07676,-0.187087 0.187626,-0.233141 l 0.06104,0.02005 0.0053,-0.102438 c 0.04563,-0.104715 0.104803,-0.200813 0.21556,-0.264121 0.06091,9.61e-4 0.09688,0.02431 0.075,0.09961 -0.01191,0.112738 -0.09906,0.191653 -0.199485,0.264598 l -0.09193,0.0061 -10e-4,0.07674 c -0.0066,0.10118 -0.0539,0.166715 -0.152194,0.187718 l -0.09238,0.01417 0.01548,0.07839 c -0.01753,0.161647 -0.124313,0.214549 -0.226678,0.272833 l -0.103338,0.01129 -0.0092,0.124165 c -0.07683,0.175998 -0.216349,0.294388 -0.348543,0.419512 l 0.359081,0.320261 0.09572,0.06649 c -0.08399,0.246409 -0.441581,0.767096 -0.328397,1.074143 0.210185,0.33505 0.750801,0.511997 0.992493,0.574333 -0.245806,-0.06348 -0.802945,-0.289688 -1.001694,-0.570153 -0.108216,-0.303482 0.21756,-0.82444 0.334826,-1.054145 0.229905,0.08175 0.463376,0.155306 0.620248,0.404703 0.340733,0.508545 0.150001,0.848898 0.04758,1.217199 l 0.366132,0.985605 c 0.17852,0.367888 0.07031,0.62903 0.08199,0.934803 l 0.362989,1.513376 c 0.703266,-0.188126 1.463339,-0.366561 2.225379,-0.544661 l 0.241565,-0.793423 0.23721,-0.208106 -0.238495,0.206763 -0.170131,0.870659 c -0.749309,0.189048 -1.499848,0.37615 -2.279352,0.517392 l 0.647275,2.717425 -2.653702,2.859554 c -0.183438,0.202586 -0.449332,0.294853 -0.71292,0.306585 0.124595,-0.0046 -0.108885,23.894782 0.0011,23.85469 0.07749,-0.02825 0.03972,-14.60433 0.07965,-18.310976 0.03228,-2.996411 0.589901,-5.801411 0.632153,-5.849701 l 2.659172,-2.862173 -0.02725,0.524792 0.0618,0.387641 c 0.88317,0.525487 1.79324,0.93413 2.628345,1.66839 l 2.246868,1.052359 0.870873,0.470203 0.304075,0.0665 -0.142028,0.04367 0.09676,0.133158 -0.259376,-0.236711 -0.868931,-0.472247 -2.275426,-0.982692 c -0.989958,-0.340717 -1.742051,-1.094115 -2.586619,-1.687076 0.160746,0.825363 0.414481,1.663213 0.387062,2.46331 l -0.144179,1.978976 0.490507,-0.104464 c 1.166318,0.404011 2.35735,0.760057 2.994939,2.190223 0.207993,2.080892 0.785394,3.750661 1.709759,5.495373 -0.537671,1.519967 -0.933995,3.20213 -2.190543,3.897194 l 0.18437,1.895559 0.160311,0.900248 -0.09723,-0.40774 -0.0606,0.407584 -0.0018,-0.920024 -0.305739,-1.956378 c 0.231307,-0.701271 0.491572,-1.397893 0.874608,-2.074796 0.0084,-0.01493 0.01695,-0.02985 0.02552,-0.04476 0.01079,-0.01878 0.02168,-0.03754 0.03266,-0.05628 0.192607,-0.328671 0.415439,-0.652488 0.679331,-0.96971 -0.904782,-1.264104 -2.259439,-2.095684 -2.738014,-3.83327 -0.535546,-1.329254 -1.015723,-2.562894 -1.824572,-3.505875 -0.059,2.23692 -0.164914,4.713819 -0.111608,6.376191 -0.02276,1.454847 -0.285576,2.366658 -0.442183,3.518725 -1.674731,2.830031 -1.671342,4.475822 -2.186268,6.487386 l -0.64712,2.933252 -0.127623,3.185682"
       id="path468"
       inkscape:path-effect="#path-effect1457"
       inkscape:original-d="m 54.666753,31.935835 c -0.09306,0.01978 -0.182919,0.02718 -0.288055,0.0936 -0.147452,0.06802 -0.266282,0.191461 -0.38465,0.315789 -0.115746,-0.147733 -0.19904,-0.277607 -0.364176,-0.452519 l -0.08643,-0.03737 -0.01895,-0.09356 c -0.06105,-0.101048 -0.110766,-0.21442 -0.21556,-0.267851 l -0.07022,-0.0051 0.0058,-0.07495 c -0.02216,-0.104168 -0.07676,-0.187087 -0.187626,-0.233141 l -0.06104,0.02005 -0.0053,-0.102438 c -0.04563,-0.104715 -0.104803,-0.200813 -0.21556,-0.264121 -0.06091,9.61e-4 -0.09688,0.02431 -0.075,0.09961 0.01191,0.112738 0.09906,0.191653 0.199485,0.264598 l 0.09193,0.0061 10e-4,0.07674 c 0.0066,0.10118 0.0539,0.166715 0.152194,0.187718 l 0.09238,0.01417 -0.01548,0.07839 c 0.01753,0.161647 0.124313,0.214549 0.226678,0.272833 l 0.103338,0.01129 0.0092,0.124165 c 0.07683,0.175998 0.216349,0.294388 0.348543,0.419512 l -0.359081,0.320261 -0.09572,0.06649 c 0.08399,0.246409 0.441581,0.767096 0.328397,1.074143 -0.210185,0.33505 -0.750801,0.511997 -0.992493,0.574333 0.245806,-0.06348 0.802945,-0.289688 1.001694,-0.570153 0.108216,-0.303482 -0.21756,-0.82444 -0.334826,-1.054145 -0.229905,0.08175 -0.463376,0.155306 -0.620248,0.404703 -0.340733,0.508545 -0.150001,0.848898 -0.04758,1.217199 l -0.366132,0.985605 c -0.17852,0.367888 -0.07031,0.62903 -0.08199,0.934803 l -0.362989,1.513376 C 51.27502,37.667839 50.514947,37.489404 49.752907,37.311304 l -0.241565,-0.793423 -0.23721,-0.208106 0.238495,0.206763 0.170131,0.870659 c 0.749309,0.189048 1.499848,0.37615 2.279352,0.517392 l -0.647275,2.717425 2.653702,2.859554 c 0.183438,0.202586 0.449332,0.294853 0.71292,0.306585 -0.124595,-0.0046 0.108885,23.894782 -0.0011,23.85469 -0.07749,-0.02825 -0.03972,-14.60433 -0.07965,-18.310976 -0.03228,-2.996411 -0.589901,-5.801411 -0.632153,-5.849701 l -2.659172,-2.862173 0.02725,0.524792 -0.0618,0.387641 c -0.88317,0.525487 -1.79324,0.93413 -2.628345,1.66839 l -2.246868,1.052359 -0.870873,0.470203 -0.304075,0.0665 0.142028,0.04367 -0.09676,0.133158 0.259376,-0.236711 0.868931,-0.472247 2.275426,-0.982692 c 0.989958,-0.340717 1.742051,-1.094115 2.586619,-1.687076 -0.160746,0.825363 -0.414481,1.663213 -0.387062,2.46331 l 0.144179,1.978976 -0.490507,-0.104464 c -1.166318,0.404011 -2.35735,0.760057 -2.994939,2.190223 -0.207993,2.080892 -0.785394,3.750661 -1.709759,5.495373 0.537671,1.519967 0.933995,3.20213 2.190543,3.897194 l -0.18437,1.895559 -0.160311,0.900248 0.09723,-0.40774 0.0606,0.407584 0.0018,-0.920024 0.305739,-1.956378 c -0.231307,-0.701271 -0.491572,-1.397893 -0.874608,-2.074796 -0.0084,-0.01493 -0.01695,-0.02985 -0.02552,-0.04476 -0.01079,-0.01878 -0.02168,-0.03754 -0.03266,-0.05628 -0.192607,-0.328671 -0.415439,-0.652488 -0.679331,-0.96971 0.904782,-1.264104 2.259439,-2.095684 2.738014,-3.83327 0.535546,-1.329254 1.015723,-2.562894 1.824572,-3.505875 0.059,2.23692 0.164914,4.713819 0.111608,6.376191 0.02276,1.454847 0.285576,2.366658 0.442183,3.518725 1.674731,2.830031 1.671342,4.475822 2.186268,6.487386 l 0.64712,2.933252 0.127623,3.185682"
       class="UnoptimicedTransforms"
       sodipodi:nodetypes="ccccccccccccccccccccccccccccccccccccccccccccssccccccccccccccccccccccccccssscccccccc"
       transform="matrix(0.69856584,0,0,0.66762309,67.570196,121.72605)" />
    <path
       style="display:none;fill:none;fill-opacity:1;stroke:#000000;stroke-width:0.668668;stroke-linecap:round;stroke-linejoin:round;stroke-dasharray:none;stroke-opacity:1"
       d="m 17.448695,80.306339 c 0.122966,1.776985 0.543476,3.537775 0.06876,5.347293 -0.119218,0.625522 -0.418293,1.295906 -0.187562,1.83414 0.209409,0.353433 0.429937,0.676839 0.743176,0.749887 l 0.472901,0.15492 -0.363784,-0.04482 c -0.440825,-0.07812 -0.629165,-0.471987 -0.837069,-0.841388 l 1.033753,4.776314 0.05881,5.172658 c -0.278001,-1.367489 -0.193946,-4.193428 -1.104849,-5.11761 -2.331472,-2.087207 -2.658539,-1.44053 -2.780851,-2.950992 -0.519341,-2.187953 -0.220459,-4.852229 -0.238158,-7.33221 -0.08246,-1.212997 0.540416,-2.425995 0.894218,-3.638992 l -1.452421,-0.226935 c -0.596205,2.760748 -0.522278,5.493453 -1.877514,8.285963 l -1.31071,1.258789 1.308894,-1.262374 c 1.157356,-2.855454 1.319927,-5.710909 1.946987,-8.566363 l 1.453659,0.222139 0.281284,-1.144677 c 0.650648,0.23814 1.090386,0.660294 1.193364,1.376261 0.04215,0.674798 0.259682,1.257675 0.647025,1.751543 0.348407,0.209642 0.569021,0.931831 1.144204,0.765073 -0.453591,0.192927 -0.787822,-0.461052 -1.128183,-0.743376 -0.446485,-0.412194 -0.501911,-1.137999 -0.661274,-1.780453 -0.07207,-0.734903 -0.608993,-1.067362 -1.242362,-1.316315 l 0.0098,-1.486966 0.324043,-0.269806 c 0.689691,0.606946 1.551562,1.293078 2.612666,1.038139 -1.038698,0.311407 -1.842776,-0.550821 -2.602488,-1.031874 l -1.920555,0.376961 c -0.932853,1.415368 -1.991916,2.671712 -3.453036,3.421465 1.521677,-0.76661 2.446647,-2.120517 3.430414,-3.416554 l 1.938361,-0.406314 0.707482,-1.543242 c 0.63837,-0.47446 1.294105,-0.589044 1.961477,-0.462465 -0.694376,-0.08978 -1.345118,0.06645 -1.952336,0.468055 l -1.767917,0.045 -1.894463,-2.445287 1.90549,2.431627 1.740411,-0.03298 -0.585264,-0.818835 c -0.806661,-0.574411 -1.035277,-0.996652 -0.442477,-1.696734 0.213567,-0.336019 0.615872,-0.492112 0.973803,-0.617916 0.331127,0.226673 0.689934,0.439642 0.825357,0.763203 0.191943,0.327869 0.106287,0.638467 -0.01865,0.946622 -0.412966,0.325504 -0.841005,0.574826 -1.322505,0.55392 0.5224,0.0063 0.978261,-0.124712 1.305327,-0.521379 0.08803,-0.32202 0.184929,-0.64404 0.02865,-0.96606 -0.218073,-0.42256 -0.508723,-0.602465 -0.806105,-0.759862 l 0.149508,-0.69361 c -0.271579,-2.960364 -4.626883,-5.233011 -6.30347,-6.563362 1.715531,1.413604 6.164638,3.671028 6.319564,6.549189 0.273021,-0.305987 0.540309,-0.621719 0.927465,-0.73373 0.317857,-0.192223 0.635713,-0.188881 0.95357,-0.195674 m 1.08567,11.339994 c -0.122966,1.776985 -0.543476,3.537775 -0.06876,5.347293 0.119218,0.625522 0.418293,1.295906 0.187562,1.83414 -0.209409,0.353433 -0.429937,0.676839 -0.743176,0.749887 l -0.472901,0.15492 0.363784,-0.04482 c 0.440825,-0.07812 0.629165,-0.471987 0.837069,-0.841388 l -1.033753,4.776314 -0.05881,5.172658 c 0.278001,-1.367489 0.193946,-4.193428 1.104849,-5.11761 2.331472,-2.087207 2.658539,-1.44053 2.780851,-2.950992 0.519341,-2.187953 0.220459,-4.852229 0.238158,-7.33221 0.08246,-1.212997 -0.540416,-2.425995 -0.894218,-3.638992 l 1.452421,-0.226935 c 0.596205,2.760748 0.522278,5.493453 1.877514,8.285963 l 1.31071,1.258789 -1.308894,-1.262374 c -1.157356,-2.855454 -1.319927,-5.710909 -1.946987,-8.566363 l -1.453659,0.222139 -0.281284,-1.144677 c -0.650648,0.23814 -1.090386,0.660294 -1.193364,1.376261 -0.04215,0.674798 -0.259682,1.257675 -0.647025,1.751543 -0.348407,0.209642 -0.569021,0.931831 -1.144204,0.765073 0.453591,0.192927 0.787822,-0.461052 1.128183,-0.743376 0.446485,-0.412194 0.501911,-1.137999 0.661274,-1.780453 0.07207,-0.734903 0.608993,-1.067362 1.242362,-1.316315 l -0.0098,-1.486966 -0.324043,-0.269806 c -0.689691,0.606946 -1.551562,1.293078 -2.612666,1.038139 1.038698,0.311407 1.842776,-0.550821 2.602488,-1.031874 l 1.920555,0.376961 c 0.932853,1.415368 1.991916,2.671712 3.453036,3.421465 -1.521677,-0.76661 -2.446647,-2.120517 -3.430414,-3.416554 L 21.239282,75.259865 20.5318,73.716623 c -0.63837,-0.47446 -1.294105,-0.589044 -1.961477,-0.462465 0.694376,-0.08978 1.345118,0.06645 1.952336,0.468055 l 1.767917,0.045 1.894463,-2.445287 -1.90549,2.431627 -1.740411,-0.03298 0.585264,-0.818835 c 0.806661,-0.574411 1.035277,-0.996652 0.442477,-1.696734 -0.213567,-0.336019 -0.615872,-0.492112 -0.973803,-0.617916 -0.331127,0.226673 -0.689934,0.439642 -0.825357,0.763203 -0.191943,0.327869 -0.106287,0.638467 0.01865,0.946622 0.412966,0.325504 0.841005,0.574826 1.322505,0.55392 -0.5224,0.0063 -0.978261,-0.124712 -1.305327,-0.521379 -0.08803,-0.32202 -0.184929,-0.64404 -0.02865,-0.96606 0.218073,-0.42256 0.508723,-0.602465 0.806105,-0.759862 l -0.149508,-0.69361 c 0.271579,-2.960364 4.626883,-5.233011 6.30347,-6.563362 -1.715531,1.413604 -6.164638,3.671028 -6.319564,6.549189 -0.273021,-0.305987 -0.540309,-0.621719 -0.927465,-0.73373 -0.317857,-0.192223 -0.635713,-0.188881 -0.95357,-0.195674"
       id="path7379"
       inkscape:path-effect="#path-effect7381"
       inkscape:original-d="m 17.448695,80.306339 c 0.122966,1.776985 0.543476,3.537775 0.06876,5.347293 -0.119218,0.625522 -0.418293,1.295906 -0.187562,1.83414 0.209409,0.353433 0.429937,0.676839 0.743176,0.749887 l 0.472901,0.15492 -0.363784,-0.04482 c -0.440825,-0.07812 -0.629165,-0.471987 -0.837069,-0.841388 l 1.033753,4.776314 0.05881,5.172658 c -0.278001,-1.367489 -0.193946,-4.193428 -1.104849,-5.11761 -2.331472,-2.087207 -2.658539,-1.44053 -2.780851,-2.950992 -0.519341,-2.187953 -0.220459,-4.852229 -0.238158,-7.33221 -0.08246,-1.212997 0.540416,-2.425995 0.894218,-3.638992 l -1.452421,-0.226935 c -0.596205,2.760748 -0.522278,5.493453 -1.877514,8.285963 l -1.31071,1.258789 1.308894,-1.262374 c 1.157356,-2.855454 1.319927,-5.710909 1.946987,-8.566363 l 1.453659,0.222139 0.281284,-1.144677 c 0.650648,0.23814 1.090386,0.660294 1.193364,1.376261 0.04215,0.674798 0.259682,1.257675 0.647025,1.751543 0.348407,0.209642 0.569021,0.931831 1.144204,0.765073 -0.453591,0.192927 -0.787822,-0.461052 -1.128183,-0.743376 -0.446485,-0.412194 -0.501911,-1.137999 -0.661274,-1.780453 -0.07207,-0.734903 -0.608993,-1.067362 -1.242362,-1.316315 l 0.0098,-1.486966 0.324043,-0.269806 c 0.689691,0.606946 1.551562,1.293078 2.612666,1.038139 -1.038698,0.311407 -1.842776,-0.550821 -2.602488,-1.031874 l -1.920555,0.376961 c -0.932853,1.415368 -1.991916,2.671712 -3.453036,3.421465 1.521677,-0.76661 2.446647,-2.120517 3.430414,-3.416554 l 1.938361,-0.406314 0.707482,-1.543242 c 0.63837,-0.47446 1.294105,-0.589044 1.961477,-0.462465 -0.694376,-0.08978 -1.345118,0.06645 -1.952336,0.468055 l -1.767917,0.045 -1.894463,-2.445287 1.90549,2.431627 1.740411,-0.03298 -0.585264,-0.818835 c -0.806661,-0.574411 -1.035277,-0.996652 -0.442477,-1.696734 0.213567,-0.336019 0.615872,-0.492112 0.973803,-0.617916 0.331127,0.226673 0.689934,0.439642 0.825357,0.763203 0.191943,0.327869 0.106287,0.638467 -0.01865,0.946622 -0.412966,0.325504 -0.841005,0.574826 -1.322505,0.55392 0.5224,0.0063 0.978261,-0.124712 1.305327,-0.521379 0.08803,-0.32202 0.184929,-0.64404 0.02865,-0.96606 -0.218073,-0.42256 -0.508723,-0.602465 -0.806105,-0.759862 l 0.149508,-0.69361 c -0.271579,-2.960364 -4.626883,-5.233011 -6.30347,-6.563362 1.715531,1.413604 6.164638,3.671028 6.319564,6.549189 0.273021,-0.305987 0.540309,-0.621719 0.927465,-0.73373 0.317857,-0.192223 0.635713,-0.188881 0.95357,-0.195674"
       class="UnoptimicedTransforms"
       sodipodi:nodetypes="ccccccccccccccccccccccccccccccccccccccccccccccccccccccc"
       transform="matrix(0.74775539,0,0,0.74775539,91.898296,95.079494)" />
    <path
       style="display:none;fill:none;fill-opacity:1;stroke:#000000;stroke-width:0.500083;stroke-linecap:round;stroke-linejoin:round;stroke-dasharray:none;stroke-opacity:1"
       d="m 184.04993,71.138366 -1.28053,0.206754 c -0.37995,-0.0183 -0.78805,-0.178043 -1.0938,0.176605 -0.0686,0.151063 -0.15129,0.292036 0.01,0.607258 0.10645,1.235525 0.025,1.477582 0.0358,2.207457 0.79361,0.15085 1.58722,0.456741 2.38083,0.361038 -0.87553,-0.0683 -1.48833,-0.438458 -2.63682,-0.193148 l -0.0708,0.82738 -1.64001,-0.227578 -0.1826,0.125075 -0.76763,-0.734878 -0.25391,-0.05227 -0.57258,-1.279503 -0.11771,0.108767 -0.30615,-0.612509 0.24711,0.548945 -0.0501,0.06348 0.80886,1.161668 -0.0608,0.264719 1.10322,0.54153 0.14805,0.209556 1.5365,0.247158 5.2e-4,0.888578 0.3639,1.396647 c 0.50135,0.898478 1.51189,1.096166 2.47521,0.898491 -1.07791,0.360602 -2.13366,-0.165084 -2.98447,-0.540649 -1.33844,-0.330959 -2.73279,-0.369169 -3.96885,-1.236251 -0.26634,-0.996538 -0.486,-2.023006 -1.39237,-2.609214 0.8236,0.576284 1.09455,1.578638 1.36089,2.584543 l -1.76352,-0.547144 c -0.31598,-0.963061 -0.44041,-1.966394 -1.56138,-2.760208 1.1977,0.663707 1.15379,1.786051 1.53201,2.752466 l -2.13198,-0.661746 c -0.39897,-1.090147 -0.58364,-2.268381 -1.9039,-2.979848 1.28213,0.776617 1.55054,1.898994 1.91593,2.988295 l -2.09368,-0.651068 c -0.60839,-1.238904 -1.2761,-2.425099 -2.39231,-3.212767 1.21876,0.792202 1.85643,1.984232 2.4239,3.224571 l -2.53675,-0.775991 c -0.35157,-1.168891 -1.38105,-2.075314 -2.53469,-2.933662 1.01987,0.838574 1.97002,1.727438 2.5,2.919408 l -2.87756,-0.903542 c -0.30246,-1.020438 -1.08774,-1.722254 -1.96606,-2.362665 0.97497,0.548784 1.57916,1.383069 1.95577,2.392586 l -0.18269,-0.224757 0.29662,0.312166 c -0.79018,0.553729 -1.69381,1.018711 -2.01215,1.94154 0.22385,-1.023669 1.11947,-1.485799 2.02207,-1.942095 l 1.30723,0.564197 c -1.81255,0.85354 -2.51427,2.40829 -3.29288,3.914503 0.78424,-1.472667 1.54954,-2.95525 3.29538,-3.924326 l 1.43028,0.59533 c -2.17307,1.901809 -3.85272,3.903318 -4.96033,6.020415 1.1238,-2.221228 2.76884,-4.228228 4.93625,-6.020539 l 1.52907,0.652368 c -2.60892,1.926166 -4.03098,4.565592 -5.65817,7.081741 1.56692,-2.524911 2.95346,-5.141615 5.66571,-7.083704 l 1.62502,0.67165 c -2.52329,2.37004 -4.70886,4.902808 -5.86398,7.932091 1.17845,-3.144996 3.36359,-5.632441 5.84407,-7.924343 l 1.64019,0.676062 c -2.31383,2.187381 -4.39393,4.511013 -5.66072,7.308775 1.26399,-2.717985 3.32508,-5.067556 5.65154,-7.294475 l 1.27332,0.538109 c -1.74337,2.09025 -3.68501,4.132567 -4.28265,6.499817 0.81073,-2.366638 2.63957,-4.400925 4.31478,-6.485361 l 1.23994,0.511467 c -1.1197,1.665127 -2.58069,3.223726 -3.2007,5.044823 0.39185,-1.769102 2.05345,-3.369599 3.17681,-5.041568 l 1.24004,0.543733 c -0.74644,1.17924 -2.28581,2.202765 -2.23932,3.537719 0.14133,-1.176175 1.5369,-2.352349 2.3056,-3.528524 l 0.93882,0.408943 c -0.57916,0.708245 -1.4146,1.348404 -1.50541,2.186392 0.10585,-1.036253 0.91141,-1.540367 1.52739,-2.188653 l 0.47006,0.198963 0.45779,0.08091 -1.00563,1.46451 1.05449,-1.423093 c 0.2502,0.157499 0.53351,0.278161 0.96845,0.230128 l -0.76567,1.005068 0.75121,-1.00486 1.08796,0.262684 0.0926,1.004731 -3.39104,0.496564 -0.14028,0.455745 -0.522,-0.275622 -1.92835,1.103623 -0.22278,0.247151 -1.38969,0.738941 1.36853,-0.72755 0.50059,-0.0357 1.81072,-0.597236 0.40765,-0.359334 0.12233,0.430613 3.45452,-0.71638 0.0618,0.670292 -1.3242,0.873001 c -0.91495,-0.23253 -1.65552,-0.265852 -2.72661,-0.117415 1.05412,-0.139904 1.83517,-0.192411 2.74696,0.09469 l -1.09701,0.732523 c -1.03512,-0.11405 -2.05283,-0.347168 -3.13544,-0.136224 1.05617,-0.270693 2.11234,0.03895 3.16851,0.139063 l -1.41189,0.927999 c -0.9692,-0.237008 -1.87267,-0.828396 -2.97393,-0.353322 1.04676,-0.346689 1.99473,0.04014 2.94179,0.433666 l -1.61512,1.052831 c -0.74136,-0.226823 -1.4622,-0.530657 -2.3505,-0.206171 0.89267,-0.409201 1.62208,-0.03235 2.37552,0.228824 l -1.62544,1.052779 c -0.57126,-0.04232 -0.93272,-0.340558 -1.73708,-0.09856 0.65876,-0.17042 1.15211,0.07477 1.72672,0.115789 l -1.84393,1.191772 c -0.46979,-0.02454 -0.93958,-0.211389 -1.40937,-0.01542 0.58474,-0.1425 0.95294,0.06134 1.42043,0.106376 l -1.68081,1.058282 c -0.49594,0.03349 -0.93256,-0.304013 -1.4979,0.163417 0.58766,-0.328513 1.02322,-0.137792 1.52486,-0.17265 l -1.86404,1.170224 -1.26426,0.167004 1.28457,-0.155422 -1.5793,0.975308 -1.24354,0.05497 1.22229,-0.03373 -0.23463,0.142445 0.11723,1.456498 -0.12061,-1.450439 -0.53918,0.323339 1.60657,-0.983011 0.18501,2.259082 -0.20045,-2.250129 1.23675,-0.749877 c 0.22861,1.336049 1.32991,2.621333 0.68351,4.008282 0.52949,-1.43541 -0.44123,-2.682779 -0.67131,-4.022981 l 1.40672,-0.895408 c 0.35804,1.909513 1.34501,3.724631 1.06221,5.730325 0.0993,-2.014781 -0.7057,-3.797196 -1.06566,-5.693968 l 1.76425,-1.129963 c 0.50321,2.574632 1.6412,5.041435 1.50964,7.723897 -0.0325,-3.013678 -0.99931,-5.12034 -1.49896,-7.68051 l 1.33576,-0.847884 c 0.6691,2.781725 1.61279,5.440729 1.90509,8.390858 -0.20286,-2.938203 -1.22227,-5.59347 -1.8875,-8.371463 l 1.23237,-0.77044 c 0.60768,2.221162 1.28419,4.424623 1.4755,6.752848 -0.24156,-2.306285 -0.88185,-4.5174 -1.46799,-6.741439 l 1.29076,-0.772464 c 0.42209,1.818353 1.28079,3.414239 1.16556,5.506374 -0.009,-1.908987 -0.74921,-3.687755 -1.16529,-5.524249 l 1.26922,-0.82909 c 0.65261,1.150377 0.82697,2.473336 0.95521,3.812937 -0.10944,-1.364995 -0.37445,-2.648225 -0.90133,-3.793819 l 3.58087,-2.192132 -0.26699,1.030244 c 0.99885,0.799172 1.9977,0.466647 2.99655,0.135376 -0.88751,0.192193 -1.77501,0.499564 -2.66252,0.177685 l -0.0995,1.03467 -1.60141,1.050759 -0.36873,2.771562 0.1154,2.350732 -0.63413,1.345861 0.66098,-1.100081 -0.096,-2.79903 0.5173,-2.264593 1.3461,-0.726072 -0.61695,6.418038 c -0.46071,4.050069 0.26657,7.353766 1.58445,10.256842 0.18571,1.34198 1.00687,1.87019 1.70954,2.55015 m 0.23998,-33.851344 1.28053,0.206754 c 0.37995,-0.0183 0.78805,-0.178043 1.0938,0.176605 0.0686,0.151063 0.15129,0.292036 -0.01,0.607258 -0.10645,1.235525 -0.025,1.477582 -0.0358,2.207457 -0.79361,0.15085 -1.58722,0.456741 -2.38083,0.361038 0.87553,-0.0683 1.48833,-0.438458 2.63682,-0.193148 l 0.0708,0.82738 1.64001,-0.227578 0.1826,0.125075 0.76763,-0.734878 0.25391,-0.05227 0.57258,-1.279503 0.11771,0.108767 0.30615,-0.612509 -0.24711,0.548945 0.0501,0.06348 -0.80886,1.161668 0.0608,0.264719 -1.10322,0.54153 -0.14805,0.209556 -1.5365,0.247158 -5.2e-4,0.888578 -0.3639,1.396647 c -0.50135,0.898478 -1.51189,1.096166 -2.47521,0.898491 1.07791,0.360602 2.13366,-0.165084 2.98447,-0.540649 1.33844,-0.330959 2.73279,-0.369169 3.96885,-1.236251 0.26634,-0.996538 0.486,-2.023006 1.39237,-2.609214 -0.8236,0.576284 -1.09455,1.578638 -1.36089,2.584543 l 1.76352,-0.547144 c 0.31598,-0.963061 0.44041,-1.966394 1.56138,-2.760208 -1.1977,0.663707 -1.15379,1.786051 -1.53201,2.752466 l 2.13198,-0.661746 c 0.39897,-1.090147 0.58364,-2.268381 1.9039,-2.979848 -1.28213,0.776617 -1.55054,1.898994 -1.91593,2.988295 l 2.09368,-0.651068 c 0.60839,-1.238904 1.2761,-2.425099 2.39231,-3.212767 -1.21876,0.792202 -1.85643,1.984232 -2.4239,3.224571 l 2.53675,-0.775991 c 0.35157,-1.168891 1.38105,-2.075314 2.53469,-2.933662 -1.01987,0.838574 -1.97002,1.727438 -2.5,2.919408 l 2.87756,-0.903542 c 0.30246,-1.020438 1.08774,-1.722254 1.96606,-2.362665 -0.97497,0.548784 -1.57916,1.383069 -1.95577,2.392586 l 0.18269,-0.224757 -0.29662,0.312166 c 0.79018,0.553729 1.69381,1.018711 2.01215,1.94154 -0.22385,-1.023669 -1.11947,-1.485799 -2.02207,-1.942095 l -1.30723,0.564197 c 1.81255,0.85354 2.51427,2.40829 3.29288,3.914503 -0.78424,-1.472667 -1.54954,-2.95525 -3.29538,-3.924326 l -1.43028,0.59533 c 2.17307,1.901809 3.85272,3.903318 4.96033,6.020415 -1.1238,-2.221228 -2.76884,-4.228228 -4.93625,-6.020539 l -1.52907,0.652368 c 2.60892,1.926166 4.03098,4.565592 5.65817,7.081741 -1.56692,-2.524911 -2.95346,-5.141615 -5.66571,-7.083704 l -1.62502,0.67165 c 2.52329,2.37004 4.70886,4.902808 5.86398,7.932091 -1.17845,-3.144996 -3.36359,-5.632441 -5.84407,-7.924343 l -1.64019,0.676062 c 2.31383,2.187381 4.39393,4.511013 5.66072,7.308775 -1.26399,-2.717985 -3.32508,-5.067556 -5.65154,-7.294475 l -1.27332,0.538109 c 1.74337,2.09025 3.68501,4.132567 4.28265,6.499817 -0.81073,-2.366638 -2.63957,-4.400925 -4.31478,-6.485361 l -1.23994,0.511467 c 1.1197,1.665127 2.58069,3.223726 3.2007,5.044823 -0.39185,-1.769102 -2.05345,-3.369599 -3.17681,-5.041568 l -1.24004,0.543733 c 0.74644,1.17924 2.28581,2.202765 2.23932,3.537719 -0.14133,-1.176175 -1.5369,-2.352349 -2.3056,-3.528524 l -0.93882,0.408943 c 0.57916,0.708245 1.4146,1.348404 1.50541,2.186392 -0.10585,-1.036253 -0.91141,-1.540367 -1.52739,-2.188653 l -0.47006,0.198963 -0.45779,0.08091 1.00563,1.46451 -1.05449,-1.423093 c -0.2502,0.157499 -0.53351,0.278161 -0.96845,0.230128 l 0.76567,1.005068 -0.75121,-1.00486 -1.08796,0.262684 -0.0926,1.004731 3.39104,0.496564 0.14028,0.455745 0.522,-0.275622 1.92835,1.103623 0.22278,0.247151 1.38969,0.738941 -1.36853,-0.72755 -0.50059,-0.0357 -1.81072,-0.597236 -0.40765,-0.359334 -0.12233,0.430613 -3.45452,-0.71638 -0.0618,0.670292 1.3242,0.873001 c 0.91495,-0.23253 1.65552,-0.265852 2.72661,-0.117415 -1.05412,-0.139904 -1.83517,-0.192411 -2.74696,0.09469 l 1.09701,0.732523 c 1.03512,-0.11405 2.05283,-0.347168 3.13544,-0.136224 -1.05617,-0.270693 -2.11234,0.03895 -3.16851,0.139063 l 1.41189,0.927999 c 0.9692,-0.237008 1.87267,-0.828396 2.97393,-0.353322 -1.04676,-0.346689 -1.99473,0.04014 -2.94179,0.433666 l 1.61512,1.052831 c 0.74136,-0.226823 1.4622,-0.530657 2.3505,-0.206171 -0.89267,-0.409201 -1.62208,-0.03235 -2.37552,0.228824 l 1.62544,1.052779 c 0.57126,-0.04232 0.93272,-0.340558 1.73708,-0.09856 -0.65876,-0.17042 -1.15211,0.07477 -1.72672,0.115789 l 1.84393,1.191772 c 0.46979,-0.02454 0.93958,-0.211389 1.40937,-0.01542 -0.58474,-0.1425 -0.95294,0.06134 -1.42043,0.106376 l 1.68081,1.058282 c 0.49594,0.03349 0.93256,-0.304013 1.4979,0.163417 -0.58766,-0.328513 -1.02322,-0.137792 -1.52486,-0.17265 l 1.86404,1.170224 1.26426,0.167004 -1.28457,-0.155422 1.5793,0.975308 1.24354,0.05497 -1.22229,-0.03373 0.23463,0.142445 -0.11723,1.456498 0.12061,-1.450439 0.53918,0.323339 -1.60657,-0.983011 -0.18501,2.259082 0.20045,-2.250129 -1.23675,-0.749877 c -0.22861,1.336049 -1.32991,2.621333 -0.68351,4.008282 -0.52949,-1.43541 0.44123,-2.682779 0.67131,-4.022981 l -1.40672,-0.895408 c -0.35804,1.909513 -1.34501,3.724631 -1.06221,5.730325 -0.0993,-2.014781 0.7057,-3.797196 1.06566,-5.693968 l -1.76425,-1.129963 c -0.50321,2.574632 -1.6412,5.041435 -1.50964,7.723897 0.0325,-3.013678 0.99931,-5.12034 1.49896,-7.68051 l -1.33576,-0.847884 c -0.6691,2.781725 -1.61279,5.440729 -1.90509,8.390858 0.20286,-2.938203 1.22227,-5.59347 1.8875,-8.371463 l -1.23237,-0.77044 c -0.60768,2.221162 -1.28419,4.424623 -1.4755,6.752848 0.24156,-2.306285 0.88185,-4.5174 1.46799,-6.741439 l -1.29076,-0.772464 c -0.42209,1.818353 -1.28079,3.414239 -1.16556,5.506374 0.009,-1.908987 0.74921,-3.687755 1.16529,-5.524249 l -1.26922,-0.82909 c -0.65261,1.150377 -0.82697,2.473336 -0.95521,3.812937 0.10944,-1.364995 0.37445,-2.648225 0.90133,-3.793819 l -3.58087,-2.192132 0.26699,1.030244 c -0.99885,0.799172 -1.9977,0.466647 -2.99655,0.135376 0.88751,0.192193 1.77501,0.499564 2.66252,0.177685 l 0.0995,1.03467 1.60141,1.050759 0.36873,2.771562 -0.1154,2.350732 0.63413,1.345861 -0.66098,-1.100081 0.096,-2.79903 -0.5173,-2.264593 -1.3461,-0.726072 0.61695,6.418038 c 0.46071,4.050069 -0.26657,7.353766 -1.58445,10.256842 -0.18571,1.34198 -1.00687,1.87019 -1.70954,2.55015"
       id="path9702"
       inkscape:path-effect="#path-effect9704"
       inkscape:original-d="m 184.04993,71.138366 -1.28053,0.206754 c -0.37995,-0.0183 -0.78805,-0.178043 -1.0938,0.176605 -0.0686,0.151063 -0.15129,0.292036 0.01,0.607258 0.10645,1.235525 0.025,1.477582 0.0358,2.207457 0.79361,0.15085 1.58722,0.456741 2.38083,0.361038 -0.87553,-0.0683 -1.48833,-0.438458 -2.63682,-0.193148 l -0.0708,0.82738 -1.64001,-0.227578 -0.1826,0.125075 -0.76763,-0.734878 -0.25391,-0.05227 -0.57258,-1.279503 -0.11771,0.108767 -0.30615,-0.612509 0.24711,0.548945 -0.0501,0.06348 0.80886,1.161668 -0.0608,0.264719 1.10322,0.54153 0.14805,0.209556 1.5365,0.247158 5.2e-4,0.888578 0.3639,1.396647 c 0.50135,0.898478 1.51189,1.096166 2.47521,0.898491 -1.07791,0.360602 -2.13366,-0.165084 -2.98447,-0.540649 -1.33844,-0.330959 -2.73279,-0.369169 -3.96885,-1.236251 -0.26634,-0.996538 -0.486,-2.023006 -1.39237,-2.609214 0.8236,0.576284 1.09455,1.578638 1.36089,2.584543 l -1.76352,-0.547144 c -0.31598,-0.963061 -0.44041,-1.966394 -1.56138,-2.760208 1.1977,0.663707 1.15379,1.786051 1.53201,2.752466 l -2.13198,-0.661746 c -0.39897,-1.090147 -0.58364,-2.268381 -1.9039,-2.979848 1.28213,0.776617 1.55054,1.898994 1.91593,2.988295 l -2.09368,-0.651068 c -0.60839,-1.238904 -1.2761,-2.425099 -2.39231,-3.212767 1.21876,0.792202 1.85643,1.984232 2.4239,3.224571 l -2.53675,-0.775991 c -0.35157,-1.168891 -1.38105,-2.075314 -2.53469,-2.933662 1.01987,0.838574 1.97002,1.727438 2.5,2.919408 l -2.87756,-0.903542 c -0.30246,-1.020438 -1.08774,-1.722254 -1.96606,-2.362665 0.97497,0.548784 1.57916,1.383069 1.95577,2.392586 l -0.18269,-0.224757 0.29662,0.312166 c -0.79018,0.553729 -1.69381,1.018711 -2.01215,1.94154 0.22385,-1.023669 1.11947,-1.485799 2.02207,-1.942095 l 1.30723,0.564197 c -1.81255,0.85354 -2.51427,2.40829 -3.29288,3.914503 0.78424,-1.472667 1.54954,-2.95525 3.29538,-3.924326 l 1.43028,0.59533 c -2.17307,1.901809 -3.85272,3.903318 -4.96033,6.020415 1.1238,-2.221228 2.76884,-4.228228 4.93625,-6.020539 l 1.52907,0.652368 c -2.60892,1.926166 -4.03098,4.565592 -5.65817,7.081741 1.56692,-2.524911 2.95346,-5.141615 5.66571,-7.083704 l 1.62502,0.67165 c -2.52329,2.37004 -4.70886,4.902808 -5.86398,7.932091 1.17845,-3.144996 3.36359,-5.632441 5.84407,-7.924343 l 1.64019,0.676062 c -2.31383,2.187381 -4.39393,4.511013 -5.66072,7.308775 1.26399,-2.717985 3.32508,-5.067556 5.65154,-7.294475 l 1.27332,0.538109 c -1.74337,2.09025 -3.68501,4.132567 -4.28265,6.499817 0.81073,-2.366638 2.63957,-4.400925 4.31478,-6.485361 l 1.23994,0.511467 c -1.1197,1.665127 -2.58069,3.223726 -3.2007,5.044823 0.39185,-1.769102 2.05345,-3.369599 3.17681,-5.041568 l 1.24004,0.543733 c -0.74644,1.17924 -2.28581,2.202765 -2.23932,3.537719 0.14133,-1.176175 1.5369,-2.352349 2.3056,-3.528524 l 0.93882,0.408943 c -0.57916,0.708245 -1.4146,1.348404 -1.50541,2.186392 0.10585,-1.036253 0.91141,-1.540367 1.52739,-2.188653 l 0.47006,0.198963 0.45779,0.08091 -1.00563,1.46451 1.05449,-1.423093 c 0.2502,0.157499 0.53351,0.278161 0.96845,0.230128 l -0.76567,1.005068 0.75121,-1.00486 1.08796,0.262684 0.0926,1.004731 -3.39104,0.496564 -0.14028,0.455745 -0.522,-0.275622 -1.92835,1.103623 -0.22278,0.247151 -1.38969,0.738941 1.36853,-0.72755 0.50059,-0.0357 1.81072,-0.597236 0.40765,-0.359334 0.12233,0.430613 3.45452,-0.71638 0.0618,0.670292 -1.3242,0.873001 c -0.91495,-0.23253 -1.65552,-0.265852 -2.72661,-0.117415 1.05412,-0.139904 1.83517,-0.192411 2.74696,0.09469 l -1.09701,0.732523 c -1.03512,-0.11405 -2.05283,-0.347168 -3.13544,-0.136224 1.05617,-0.270693 2.11234,0.03895 3.16851,0.139063 l -1.41189,0.927999 c -0.9692,-0.237008 -1.87267,-0.828396 -2.97393,-0.353322 1.04676,-0.346689 1.99473,0.04014 2.94179,0.433666 l -1.61512,1.052831 c -0.74136,-0.226823 -1.4622,-0.530657 -2.3505,-0.206171 0.89267,-0.409201 1.62208,-0.03235 2.37552,0.228824 l -1.62544,1.052779 c -0.57126,-0.04232 -0.93272,-0.340558 -1.73708,-0.09856 0.65876,-0.17042 1.15211,0.07477 1.72672,0.115789 l -1.84393,1.191772 c -0.46979,-0.02454 -0.93958,-0.211389 -1.40937,-0.01542 0.58474,-0.1425 0.95294,0.06134 1.42043,0.106376 l -1.68081,1.058282 c -0.49594,0.03349 -0.93256,-0.304013 -1.4979,0.163417 0.58766,-0.328513 1.02322,-0.137792 1.52486,-0.17265 l -1.86404,1.170224 -1.26426,0.167004 1.28457,-0.155422 -1.5793,0.975308 -1.24354,0.05497 1.22229,-0.03373 -0.23463,0.142445 0.11723,1.456498 -0.12061,-1.450439 -0.53918,0.323339 1.60657,-0.983011 0.18501,2.259082 -0.20045,-2.250129 1.23675,-0.749877 c 0.22861,1.336049 1.32991,2.621333 0.68351,4.008282 0.52949,-1.43541 -0.44123,-2.682779 -0.67131,-4.022981 l 1.40672,-0.895408 c 0.35804,1.909513 1.34501,3.724631 1.06221,5.730325 0.0993,-2.014781 -0.7057,-3.797196 -1.06566,-5.693968 l 1.76425,-1.129963 c 0.50321,2.574632 1.6412,5.041435 1.50964,7.723897 -0.0325,-3.013678 -0.99931,-5.12034 -1.49896,-7.68051 l 1.33576,-0.847884 c 0.6691,2.781725 1.61279,5.440729 1.90509,8.390858 -0.20286,-2.938203 -1.22227,-5.59347 -1.8875,-8.371463 l 1.23237,-0.77044 c 0.60768,2.221162 1.28419,4.424623 1.4755,6.752848 -0.24156,-2.306285 -0.88185,-4.5174 -1.46799,-6.741439 l 1.29076,-0.772464 c 0.42209,1.818353 1.28079,3.414239 1.16556,5.506374 -0.009,-1.908987 -0.74921,-3.687755 -1.16529,-5.524249 l 1.26922,-0.82909 c 0.65261,1.150377 0.82697,2.473336 0.95521,3.812937 -0.10944,-1.364995 -0.37445,-2.648225 -0.90133,-3.793819 l 3.58087,-2.192132 -0.26699,1.030244 c 0.99885,0.799172 1.9977,0.466647 2.99655,0.135376 -0.88751,0.192193 -1.77501,0.499564 -2.66252,0.177685 l -0.0995,1.03467 -1.60141,1.050759 -0.36873,2.771562 0.1154,2.350732 -0.63413,1.345861 0.66098,-1.100081 -0.096,-2.79903 0.5173,-2.264593 1.3461,-0.726072 -0.61695,6.418038 c -0.46071,4.050069 0.26657,7.353766 1.58445,10.256842 0.18571,1.34198 1.00687,1.87019 1.70954,2.55015"
       class="UnoptimicedTransforms"
       sodipodi:nodetypes="cccccccccccccccccccccccccccccccccccccccccccccccccccccccccccccccccccccccccccccccccccccccccccccccccccccccccccccccccccccccccccccccccccccccccccccccccccccccccccccccccccccccc"
       transform="matrix(0.7338784,0,0,0.7338784,-29.373514,90.571915)" />
    <path
       style="display:none;fill:none;fill-opacity:1;stroke:#000000;stroke-width:0.615333;stroke-linecap:round;stroke-linejoin:round;stroke-dasharray:none;stroke-opacity:1"
       d="m 22.553499,52.912039 -0.113535,0.03292 -0.05519,-0.422593 -0.210146,-0.362955 -0.211524,-11.512552 0.198425,11.472396 0.0075,0.471423 0.158513,0.366847 -0.425362,0.08791 -0.539843,0.617687 c 0.442621,0.03131 0.636446,0.318755 0.659825,0.781681 l -0.169909,0.665069 c -0.102365,0.288748 -0.309431,0.475469 -0.644821,0.537144 0.350053,-0.03645 0.510317,-0.267231 0.622874,-0.546857 l 0.19268,-0.661245 c -0.05763,-0.43818 -0.166212,-0.726974 -0.686017,-0.811028 -0.308269,-0.09802 -0.514215,0.029 -0.704807,0.189779 -0.25761,0.218678 -0.454457,0.465476 -0.433032,0.813286 -0.02405,0.770085 0.429544,0.799807 0.739992,1.051406 0.595712,0.02057 1.106409,0.451836 1.692528,0.394399 -0.454437,0.146687 -0.87325,-0.299002 -1.462241,-0.244705 l -0.321478,0.601515 -2.046078,-0.761152 -2.702339,-1.931682 2.488962,1.852304 2.219613,0.905912 -0.42782,0.809656 0.06918,0.107813 -2.067,3.616968 -0.707395,4.155271 -1.10621,1.448631 1.104819,-1.47122 0.724268,-4.150823 2.125068,-3.484197 c 0.389425,0.75487 0.569868,1.665289 1.360981,2.121172 0.132812,0.268115 0.432183,0.287974 0.697478,0.358622 -0.22231,-0.103842 -0.573948,-0.02976 -0.637967,-0.351369 -0.867763,-0.417217 -0.996939,-1.337347 -1.368703,-2.092296 l -0.165996,2.16022 -1.541335,5.718961 -1.231135,2.531725 1.269992,-2.677579 1.482777,-5.565795 -0.484298,6.551598 c -0.38417,1.69873 -1.242893,3.85583 -0.701367,5.728052 0.242346,0.617532 0.89065,0.696879 1.553806,0.756536 0.57709,-0.838317 1.070203,-1.70151 1.103055,-2.701046 -0.120587,-1.62773 0.290893,-2.212021 0.659582,-2.880231 l 0.113239,-7.168524 m 2.13e-4,-7.109054 0.113535,0.03292 0.05519,-0.422593 0.210146,-0.362955 0.211524,-11.512552 -0.198425,11.472396 -0.0075,0.471423 -0.158513,0.366847 0.425362,0.08791 0.539843,0.617687 c -0.442621,0.03131 -0.636446,0.318755 -0.659825,0.781681 l 0.169909,0.665069 c 0.102365,0.288748 0.309431,0.475469 0.644821,0.537144 -0.350053,-0.03645 -0.510317,-0.267231 -0.622874,-0.546857 l -0.19268,-0.661245 c 0.05763,-0.43818 0.166212,-0.726974 0.686017,-0.811028 0.308269,-0.09802 0.514215,0.029 0.704807,0.189779 0.25761,0.218678 0.454457,0.465476 0.433032,0.813286 0.02405,0.770085 -0.429544,0.799807 -0.739992,1.051406 -0.595712,0.02057 -1.106409,0.451836 -1.692528,0.394399 0.454437,0.146687 0.87325,-0.299002 1.462241,-0.244705 l 0.321478,0.601515 2.046078,-0.761152 2.702339,-1.931682 -2.488962,1.852304 -2.219613,0.905912 0.42782,0.809656 -0.06918,0.107813 2.067,3.616968 0.707395,4.155271 1.10621,1.448631 -1.104819,-1.47122 -0.724268,-4.150823 -2.125068,-3.484197 c -0.389425,0.75487 -0.569868,1.665289 -1.360981,2.121172 -0.132812,0.268115 -0.432183,0.287974 -0.697478,0.358622 0.22231,-0.103842 0.573948,-0.02976 0.637967,-0.351369 0.867763,-0.417217 0.996939,-1.337347 1.368703,-2.092296 l 0.165996,2.16022 1.541335,5.718961 1.231135,2.531725 -1.269992,-2.677579 -1.482777,-5.565795 0.484298,6.551598 c 0.38417,1.69873 1.242893,3.85583 0.701367,5.728052 -0.242346,0.617532 -0.89065,0.696879 -1.553806,0.756536 -0.57709,-0.838317 -1.070203,-1.70151 -1.103055,-2.701046 0.120587,-1.62773 -0.290893,-2.212021 -0.659582,-2.880231 l -0.113239,-7.168524"
       id="path12618"
       inkscape:path-effect="#path-effect12620"
       inkscape:original-d="m 22.553499,52.912039 -0.113535,0.03292 -0.05519,-0.422593 -0.210146,-0.362955 -0.211524,-11.512552 0.198425,11.472396 0.0075,0.471423 0.158513,0.366847 -0.425362,0.08791 -0.539843,0.617687 c 0.442621,0.03131 0.636446,0.318755 0.659825,0.781681 l -0.169909,0.665069 c -0.102365,0.288748 -0.309431,0.475469 -0.644821,0.537144 0.350053,-0.03645 0.510317,-0.267231 0.622874,-0.546857 l 0.19268,-0.661245 c -0.05763,-0.43818 -0.166212,-0.726974 -0.686017,-0.811028 -0.308269,-0.09802 -0.514215,0.029 -0.704807,0.189779 -0.25761,0.218678 -0.454457,0.465476 -0.433032,0.813286 -0.02405,0.770085 0.429544,0.799807 0.739992,1.051406 0.595712,0.02057 1.106409,0.451836 1.692528,0.394399 -0.454437,0.146687 -0.87325,-0.299002 -1.462241,-0.244705 l -0.321478,0.601515 -2.046078,-0.761152 -2.702339,-1.931682 2.488962,1.852304 2.219613,0.905912 -0.42782,0.809656 0.06918,0.107813 -2.067,3.616968 -0.707395,4.155271 -1.10621,1.448631 1.104819,-1.47122 0.724268,-4.150823 2.125068,-3.484197 c 0.389425,0.75487 0.569868,1.665289 1.360981,2.121172 0.132812,0.268115 0.432183,0.287974 0.697478,0.358622 -0.22231,-0.103842 -0.573948,-0.02976 -0.637967,-0.351369 -0.867763,-0.417217 -0.996939,-1.337347 -1.368703,-2.092296 l -0.165996,2.16022 -1.541335,5.718961 -1.231135,2.531725 1.269992,-2.677579 1.482777,-5.565795 -0.484298,6.551598 c -0.38417,1.69873 -1.242893,3.85583 -0.701367,5.728052 0.242346,0.617532 0.89065,0.696879 1.553806,0.756536 0.57709,-0.838317 1.070203,-1.70151 1.103055,-2.701046 -0.120587,-1.62773 0.290893,-2.212021 0.659582,-2.880231 l 0.113239,-7.168524"
       class="UnoptimicedTransforms"
       transform="matrix(0.81256804,0,0,0.81256804,87.406542,109.1187)"
       sodipodi:nodetypes="ccccccccccccccccccccccccccccccccccccccccccccccccc" />
  </g>
</svg>
